<?xml version="1.0" encoding="utf-8"?>
<!-- Generator: Adobe Illustrator 15.1.0, SVG Export Plug-In . SVG Version: 6.00 Build 0)  -->
<!DOCTYPE svg PUBLIC "-//W3C//DTD SVG 1.1//EN" "http://www.w3.org/Graphics/SVG/1.1/DTD/svg11.dtd">
<svg version="1.1" id="Layer_1" xmlns="http://www.w3.org/2000/svg" xmlns:xlink="http://www.w3.org/1999/xlink" x="0px" y="0px"
	 width="128px" height="128px" viewBox="0 0 128 128" enable-background="new 0 0 128 128" xml:space="preserve">
<title>nodes-topology</title>
<desc>Created with Sketch.</desc>
<g opacity="0.65">
	<g>
		<path fill-rule="evenodd" clip-rule="evenodd" fill="#FFFFFF" d="M74.369,19.392c4.953-0.801,4.667-7.859-0.828-7.769
			c-0.317,0.064-0.636,0.127-0.955,0.191c-1.114,0.413-2.022,1.227-2.451,2.324C69.084,16.826,71.463,19.862,74.369,19.392z
			 M54.245,20.73c2.851-0.459,5.334-3.286,3.44-6.369c-0.767-1.247-1.955-1.865-3.79-2.07c-0.382,0.053-0.765,0.106-1.147,0.159
			c-1.396,0.389-2.382,1.365-2.929,2.611C48.599,17.848,51.376,21.192,54.245,20.73z M64.116,16.335
			c2.294-0.372,2.187-3.167-0.159-3.534c-0.813,0.295-1.356,0.307-1.688,1.051C61.711,15.106,62.79,16.551,64.116,16.335z
			 M83.316,19.87c2.114-0.462,1.997-3.577-0.572-3.502c-0.673,0.28-1.192,0.423-1.466,1.082
			C80.763,18.699,81.875,20.185,83.316,19.87z M44.12,20.316c2.205-0.39,2.135-3.448-0.254-3.535
			c-0.785,0.285-1.312,0.323-1.625,1.051C41.698,19.096,42.757,20.557,44.12,20.316z M92.041,28.085
			c1.846-0.301,3.21-1.244,3.854-2.738c1.496-3.479-1.315-6.421-4.777-6.369c-0.423,0.096-0.849,0.191-1.273,0.287
			c-1.258,0.493-2.252,1.443-2.737,2.707C85.894,25.126,88.76,28.621,92.041,28.085z M36.478,26.748
			c4.539-1.06,4.071-7.793-1.306-7.705c-0.329,0.074-0.658,0.148-0.987,0.223c-1.103,0.424-1.958,1.229-2.388,2.324
			C30.664,24.482,33.458,27.453,36.478,26.748z M64.595,30.632c3.449-0.542,6.302-4.158,4.139-7.833
			c-0.935-1.588-2.442-2.496-4.809-2.675c-0.424,0.053-0.849,0.106-1.273,0.16c-1.709,0.466-3.053,1.585-3.693,3.12
			C57.429,27.074,60.616,31.257,64.595,30.632z M76.566,24.614c-0.81,2.37,1.496,4.665,3.917,4.171
			c3.849-0.785,3.542-6.549-1.084-6.464c-0.275,0.064-0.552,0.127-0.827,0.191C77.639,22.883,76.898,23.643,76.566,24.614z
			 M43.897,24.997c-0.827,2.214,1.306,4.668,3.598,4.266c4.119-0.721,3.875-6.6-0.605-6.527c-0.318,0.064-0.636,0.128-0.955,0.191
			C44.974,23.29,44.258,24.03,43.897,24.997z M100.447,30.76c2.087-0.488,1.891-3.575-0.636-3.502
			c-0.662,0.278-1.146,0.416-1.434,1.051C97.767,29.651,99.055,31.085,100.447,30.76z M28.168,30.823
			c2.164-0.416,2.022-3.578-0.574-3.502c-0.727,0.32-1.251,0.486-1.497,1.273C25.711,29.841,26.841,31.078,28.168,30.823z
			 M62.365,91.386c4.826-1.088,8.048,2.305,9.139,5.508c0.739,0.095,2.216-0.477,2.897-0.701c1.947-0.636,3.739-1.209,5.444-2.068
			c0.967-0.53,1.933-1.062,2.898-1.593c-0.058-0.472-0.408-0.838-0.574-1.241c-0.307-0.752-0.522-1.717-0.54-2.707
			c-0.082-4.341,4.245-8.408,9.138-7.418c1.137,0.229,1.938,0.752,2.866,1.081c0.705-0.541,1.128-1.733,1.592-2.515
			c1.469-2.479,2.333-5.238,3.312-8.278c-0.012-0.033-0.022-0.064-0.033-0.097c-2.749-0.588-4.612-2.118-5.699-4.362
			c-2.411-4.977,1.777-9.884,5.986-10.411c0.206-0.496-0.547-2.617-0.732-3.152c-0.992-2.866-2.109-5.989-3.821-8.152
			c-0.468,0.276-0.934,0.552-1.4,0.828c-0.968,0.489-2.08,0.649-3.407,0.796c-1.06,0.117-2.236-0.299-2.962-0.605
			c-2.442-1.027-5.524-3.98-4.744-7.896c0.232-1.171,0.593-2.175,1.146-3.025c0.202-0.266,0.402-0.531,0.604-0.796
			c-0.371-0.57-2.034-1.229-2.706-1.592c-1.943-1.049-4.028-1.829-6.337-2.547c-0.804-0.25-1.743-0.665-2.705-0.668
			c-0.599,3.276-2.086,5.255-4.777,6.399c-5.21,2.216-10.3-1.845-10.667-6.399c-0.043-0.011-0.084-0.021-0.127-0.032
			c-1.094,0.287-2.187,0.574-3.279,0.86c-2.017,0.61-3.974,1.489-5.699,2.419c-0.688,0.371-2.244,0.978-2.643,1.561
			c0.576,1.033,1.256,1.844,1.623,3.184c1.149,4.203-1.93,7.395-4.585,8.534c-0.771,0.331-2.1,0.803-3.279,0.605
			c-1.34-0.225-2.406-0.409-3.408-0.923c-0.36-0.233-0.722-0.467-1.082-0.701c-0.542,0.369-1.318,2.094-1.625,2.771
			c-0.382,0.774-0.764,1.549-1.146,2.324c-0.569,1.325-0.955,2.67-1.4,4.138c-0.184,0.605-0.473,1.312-0.479,2.038
			c0.75,0.244,1.471,0.32,2.134,0.605c2.625,1.128,5.369,4.44,4.33,8.565c-0.187,0.744-0.497,1.476-0.859,2.07
			c-0.834,1.362-2.14,2.482-3.694,3.12c-0.499,0.149-0.998,0.297-1.496,0.445c-0.021,0.022-0.043,0.043-0.063,0.063
			c-0.099,0.415,0.742,2.656,0.922,3.121c1.118,2.877,2.312,5.349,3.886,7.705c0.382-0.19,0.764-0.382,1.146-0.572
			c0.776-0.305,1.733-0.483,2.61-0.605c3.769-0.524,6.841,2.475,7.769,4.904c0.282,0.737,0.694,1.871,0.509,2.993
			c-0.149,0.911-0.267,1.715-0.572,2.451c-0.18,0.35-0.36,0.701-0.542,1.051c0.486,0.575,1.913,1.091,2.643,1.466
			c1.875,0.957,3.839,1.684,6.051,2.355c0.754,0.229,1.627,0.55,2.482,0.637c0.391-0.361,0.492-1.289,0.765-1.752
			c0.633-1.072,1.561-2.15,2.643-2.77C60.564,91.978,61.427,91.597,62.365,91.386z M56.698,81.674
			c-6.001-2.206-9.904-6.445-12.1-12.482c-0.831-2.279-1.332-5.95-0.732-8.915c0.244-1.211,0.497-2.39,0.892-3.471
			c2.095-5.74,6.383-9.747,12.035-11.94c1.154-0.449,2.451-0.732,3.757-0.987c0.871-0.084,1.741-0.17,2.612-0.254
			c10.031,0.05,16.172,4.906,19.423,11.716c1.346,2.82,2.313,7.317,1.464,11.431c-0.332,1.613-0.809,3.1-1.4,4.458
			c-2.315,5.315-6.91,9.143-12.736,10.953c-1.379,0.43-2.867,0.551-4.458,0.796h-2.102c-0.689-0.041-1.38-0.084-2.069-0.127
			C59.61,82.542,58.095,82.187,56.698,81.674z M92.806,41.936c2.222-0.361,3.843-1.582,4.521-3.471
			c1.388-3.866-1.758-6.976-5.254-7.037c-0.53,0.084-1.062,0.169-1.592,0.254c-1.543,0.487-2.789,1.642-3.375,3.089
			C85.621,38.44,88.879,42.576,92.806,41.936z M36.478,41.936c2.178-0.358,3.693-1.55,4.426-3.343
			c1.2-2.932-0.723-5.785-2.739-6.655c-0.803-0.346-1.68-0.494-2.865-0.477c-0.539,0.217-1.127,0.183-1.625,0.382
			c-1.346,0.541-2.477,1.684-2.993,3.057C29.31,38.554,32.546,42.583,36.478,41.936z M107.261,40.312
			c2.062-0.434,3.939-2.623,2.93-5.254c-0.583-1.523-2.039-2.487-4.203-2.452c-0.36,0.085-0.722,0.171-1.082,0.255
			c-1.039,0.389-1.909,1.279-2.293,2.325C101.55,38.08,104.242,40.946,107.261,40.312z M22.659,41.522
			c1.66-0.268,2.874-1.099,3.502-2.388c1.557-3.195-1.161-6.066-4.298-6.018c-0.404,0.084-0.807,0.169-1.21,0.254
			c-1.125,0.437-2.062,1.283-2.516,2.388C16.938,38.681,19.53,42.027,22.659,41.522z M109.204,43.942
			c-0.482,1.303,0.65,2.629,2.069,2.356c2.114-0.405,1.942-3.569-0.541-3.502C110.004,43.084,109.473,43.216,109.204,43.942z
			 M16.864,47.349c2.207-0.386,2.025-3.288-0.319-3.534c-0.775,0.302-1.309,0.344-1.624,1.082
			C14.371,46.187,15.452,47.595,16.864,47.349z M100.065,46.489c-0.899,2.29,1.197,4.82,3.63,4.395
			c4.106-0.719,3.821-6.582-0.892-6.497c-0.266,0.063-0.531,0.128-0.797,0.192C101.133,44.904,100.406,45.625,100.065,46.489z
			 M24.697,51.935c4.129-0.718,3.855-6.602-0.605-6.527c-0.372,0.084-0.744,0.169-1.114,0.254c-0.781,0.313-1.495,1.01-1.815,1.784
			C20.221,49.712,22.26,52.358,24.697,51.935z M111.337,49.96c-1.261,0.484-2.312,1.485-2.77,2.77
			c-1.17,3.293,1.828,6.66,5.19,6.018c1.832-0.35,3.187-1.421,3.757-3.025c1.212-3.406-1.661-6.101-4.808-6.049
			C112.251,49.77,111.793,49.864,111.337,49.96z M13.967,58.302c1.763-0.202,3.036-0.942,3.629-2.292
			c1.275-2.903-0.985-5.496-3.789-5.541c-0.372,0.063-0.744,0.128-1.114,0.191c-1.24,0.376-2.158,1.287-2.612,2.452
			C9.09,55.662,11.533,58.583,13.967,58.302z M29.536,63.556c-0.137-0.855-0.24-1.494-0.605-2.102
			c-1.043-1.739-2.624-2.748-5.477-2.707c-0.52,0.139-1.039,0.276-1.56,0.415c-1.367,0.654-2.534,1.758-2.993,3.311
			c-1.109,3.754,2.309,7.475,6.049,6.718C27.305,68.715,30.038,66.663,29.536,63.556z M108.663,66.485
			c1.646-3.059-0.173-6.316-2.58-7.323c-0.807-0.338-1.711-0.433-2.896-0.415c-0.436,0.106-0.871,0.212-1.307,0.319
			c-1.504,0.595-2.777,1.788-3.248,3.406c-1.064,3.672,2.279,7.506,6.051,6.718C106.497,68.812,107.898,67.905,108.663,66.485z
			 M114.841,62.187c-0.799,0.318-1.383,0.517-1.593,1.401c-0.29,1.214,0.828,2.298,1.91,2.132
			C117.502,65.363,117.408,62.116,114.841,62.187z M11.228,63.366c-0.506,1.248,0.592,2.621,1.848,2.418
			c2.313-0.37,2.186-3.549-0.223-3.534C12.078,62.545,11.528,62.626,11.228,63.366z M18.806,71.708
			c-0.766-1.42-2.179-2.2-4.426-2.166c-0.319,0.075-0.636,0.148-0.955,0.223c-1.204,0.474-2.183,1.396-2.611,2.643
			c-0.999,2.915,1.639,6.03,4.68,5.509C18.163,77.459,20.428,74.711,18.806,71.708z M117.578,71.612
			c-0.758-1.26-1.968-1.943-4.044-1.911c-0.308,0.075-0.615,0.148-0.924,0.223c-1.06,0.417-1.908,1.23-2.324,2.293
			c-1.078,2.76,1.457,5.756,4.396,5.222C117.11,76.998,119.185,74.278,117.578,71.612z M102.358,76.261
			c-0.855,0.351-1.555,1.062-1.879,1.942c-0.83,2.25,1.251,4.719,3.565,4.33c4.144-0.694,3.885-6.587-0.541-6.527
			C103.123,76.091,102.74,76.175,102.358,76.261z M23.646,77.216c-0.931,0.327-1.709,1.045-2.071,1.942
			c-0.873,2.174,1.149,4.769,3.344,4.426c1.455-0.228,2.473-0.83,2.96-2.006c1.03-2.479-0.994-4.566-3.438-4.521
			C24.176,77.109,23.912,77.162,23.646,77.216z M111.019,80.623c-0.622,0.292-1.125,0.491-1.368,1.146
			c-0.503,1.351,0.741,2.663,2.165,2.324C113.883,83.602,113.651,80.547,111.019,80.623z M16.896,81.642
			c-0.733,0.274-1.215,0.378-1.529,1.051c-0.652,1.4,0.689,2.739,2.102,2.452C19.473,84.736,19.297,81.586,16.896,81.642z
			 M35.46,86.004c-0.436,0.075-0.871,0.148-1.306,0.223c-1.717,0.579-2.99,1.784-3.567,3.504c-1.148,3.428,2.125,7.311,5.573,6.781
			c2.284-0.352,3.857-1.338,4.648-3.152C42.526,89.423,39.353,85.951,35.46,86.004z M92.009,86.004
			c-0.445,0.063-0.892,0.127-1.337,0.191c-1.539,0.463-2.876,1.494-3.47,2.897c-1.482,3.502,0.759,6.377,3.47,7.196
			c0.499,0.151,1.253,0.336,1.975,0.223c2.306-0.363,3.847-1.465,4.617-3.343C98.828,89.351,95.602,85.983,92.009,86.004z
			 M105.225,86.449c-0.372,0.096-0.744,0.192-1.116,0.287c-1.073,0.405-2.02,1.37-2.419,2.452c-1.114,3.017,1.57,6.218,4.776,5.636
			c2.442-0.444,4.607-2.954,3.312-5.922C109.077,87.298,107.592,86.413,105.225,86.449z M21.258,87.563
			c-0.361,0.075-0.722,0.149-1.083,0.224c-1.153,0.413-2.029,1.334-2.451,2.483c-1.019,2.769,1.723,5.568,4.457,5.063
			C26.972,94.447,26.616,87.475,21.258,87.563z M100.034,97.116c-0.823,0.323-1.431,0.415-1.688,1.273
			c-0.377,1.261,0.721,2.524,2.07,2.262C102.544,100.236,102.414,97.162,100.034,97.116z M27.658,97.18
			c-0.701,0.296-1.203,0.462-1.464,1.18c-0.492,1.346,0.708,2.583,2.069,2.324C30.388,100.279,30.215,97.106,27.658,97.18z
			 M63.416,97.309c-0.436,0.094-0.87,0.19-1.305,0.286c-1.524,0.539-2.738,1.758-3.281,3.279c-1.319,3.701,2.115,7.61,5.922,6.909
			c2.016-0.37,3.518-1.46,4.235-3.12C70.733,100.626,67.53,97.249,63.416,97.309z M84.018,103.198
			c1.074-2.375-1.091-4.537-3.279-4.521c-0.266,0.042-0.531,0.085-0.797,0.128c-1.046,0.29-1.903,1.09-2.261,2.069
			c-0.794,2.175,1.167,4.634,3.28,4.362C82.5,105.038,83.481,104.383,84.018,103.198z M51.316,103.644
			c1.082-2.514-1.065-4.564-3.439-4.521c-0.296,0.063-0.594,0.127-0.891,0.19c-0.95,0.341-1.708,1.137-2.038,2.102
			c-0.745,2.179,1.346,4.611,3.535,4.235C49.858,105.414,50.835,104.762,51.316,103.644z M36.319,100.205
			c-0.435,0.074-0.871,0.149-1.306,0.223c-1.273,0.434-2.231,1.409-2.707,2.644c-1.106,2.88,1.669,6.078,4.745,5.54
			c1.67-0.292,2.898-1.256,3.471-2.644C41.807,102.854,39.129,100.226,36.319,100.205z M91.914,101.16
			c-0.382,0.096-0.764,0.191-1.146,0.287c-1.028,0.43-1.857,1.332-2.229,2.42c-0.947,2.774,1.688,5.557,4.489,5.03
			c2.157-0.404,4.258-2.677,3.089-5.381C95.469,102.018,94.121,101.125,91.914,101.16z M73.51,107.242
			c-0.298,0.064-0.595,0.128-0.892,0.191c-1.172,0.415-2.162,1.312-2.611,2.451c-1.18,2.993,1.488,6.312,4.649,5.732
			c2.467-0.454,4.994-3.215,3.311-6.114C77.123,108.048,75.869,107.207,73.51,107.242z M83.795,107.656
			c-0.689,0.289-1.216,0.465-1.466,1.178c-0.479,1.373,0.827,2.695,2.23,2.293C86.533,110.562,86.307,107.583,83.795,107.656z
			 M44.789,108.069c-0.666,0.265-1.185,0.392-1.464,1.021c-0.578,1.293,0.49,2.772,2.006,2.483
			C47.473,111.164,47.259,108.008,44.789,108.069z M53.896,108.548c-0.372,0.063-0.743,0.127-1.114,0.19
			c-1.056,0.314-2.073,1.234-2.453,2.229c-1.068,2.807,1.273,5.884,4.331,5.349C59.43,115.483,59.14,108.501,53.896,108.548z
			 M63.767,111.637c-0.735,0.297-1.262,0.493-1.498,1.273c-0.395,1.313,0.846,2.558,2.23,2.197
			C66.486,114.591,66.281,111.562,63.767,111.637z"/>
	</g>
</g>
</svg>
