<?xml version="1.0" encoding="utf-8"?>
<!-- Generator: Adobe Illustrator 16.0.0, SVG Export Plug-In . SVG Version: 6.00 Build 0)  -->
<!DOCTYPE svg PUBLIC "-//W3C//DTD SVG 1.1//EN" "http://www.w3.org/Graphics/SVG/1.1/DTD/svg11.dtd">
<svg version="1.1" id="Layer_1" xmlns="http://www.w3.org/2000/svg" xmlns:xlink="http://www.w3.org/1999/xlink" x="0px" y="0px"
	 width="16px" height="16px" viewBox="0 0 16 16" enable-background="new 0 0 16 16" xml:space="preserve">
<g>
	<path fill="#FFFEFE" d="M14.141,4.906c0.109,0.422,0.188,1.062,0.234,1.922L14.398,8l-0.023,1.172
		c-0.047,0.875-0.125,1.523-0.234,1.945c-0.078,0.266-0.219,0.5-0.422,0.703s-0.445,0.344-0.727,0.422
		c-0.406,0.109-1.359,0.188-2.859,0.234L8,12.5l-2.133-0.023c-1.5-0.047-2.453-0.125-2.859-0.234
		c-0.281-0.078-0.523-0.219-0.727-0.422s-0.344-0.438-0.422-0.703c-0.109-0.422-0.188-1.07-0.234-1.945L1.602,8
		c0-0.344,0.008-0.734,0.023-1.172c0.047-0.859,0.125-1.5,0.234-1.922C1.938,4.625,2.078,4.383,2.281,4.18s0.445-0.344,0.727-0.422
		C3.414,3.648,4.367,3.57,5.867,3.523L8,3.5l2.133,0.023c1.5,0.047,2.453,0.125,2.859,0.234c0.281,0.078,0.523,0.219,0.727,0.422
		S14.062,4.625,14.141,4.906z M6.688,9.922L10.039,8L6.688,6.102V9.922z"/>
</g>
</svg>
