<?xml version="1.0" encoding="utf-8"?>
<!-- Generator: Adobe Illustrator 16.0.0, SVG Export Plug-In . SVG Version: 6.00 Build 0)  -->
<!DOCTYPE svg PUBLIC "-//W3C//DTD SVG 1.1//EN" "http://www.w3.org/Graphics/SVG/1.1/DTD/svg11.dtd">
<svg version="1.1" id="Layer_1" xmlns="http://www.w3.org/2000/svg" xmlns:xlink="http://www.w3.org/1999/xlink" x="0px" y="0px"
	 width="16px" height="16px" viewBox="0 0 16 16" enable-background="new 0 0 16 16" xml:space="preserve">
<g>
	<path fill="#FFFFFF" d="M7.93,2.332c1.062,0,2.047,0.25,2.953,0.75s1.617,1.18,2.133,2.039c0.531,0.891,0.797,1.867,0.797,2.93
		c0,1.297-0.363,2.457-1.09,3.48s-1.676,1.73-2.848,2.121c-0.125,0.031-0.223,0.016-0.293-0.047s-0.105-0.141-0.105-0.234v-1.969
		c0-0.5-0.133-0.859-0.398-1.078c0.578-0.062,1.008-0.141,1.289-0.234c0.438-0.156,0.773-0.391,1.008-0.703
		c0.266-0.406,0.398-0.961,0.398-1.664c0-0.297-0.055-0.555-0.164-0.773c-0.078-0.156-0.227-0.352-0.445-0.586
		c0.062-0.156,0.102-0.344,0.117-0.562c0.016-0.344-0.039-0.688-0.164-1.031c-0.156-0.047-0.375-0.016-0.656,0.094
		c-0.188,0.078-0.406,0.188-0.656,0.328L9.5,5.402C9.016,5.262,8.52,5.191,8.012,5.191s-0.996,0.07-1.465,0.211L6.242,5.191
		c-0.25-0.141-0.477-0.25-0.68-0.328C5.281,4.754,5.07,4.723,4.93,4.77C4.789,5.113,4.734,5.457,4.766,5.801
		c0,0.219,0.031,0.398,0.094,0.539c-0.188,0.234-0.324,0.449-0.41,0.645S4.32,7.426,4.32,7.723c0,0.703,0.125,1.25,0.375,1.641
		c0.219,0.328,0.547,0.57,0.984,0.727c0.281,0.094,0.703,0.172,1.266,0.234c-0.203,0.188-0.328,0.453-0.375,0.797
		c-0.266,0.125-0.523,0.172-0.773,0.141c-0.406-0.031-0.719-0.242-0.938-0.633c-0.094-0.172-0.219-0.312-0.375-0.422
		c-0.109-0.062-0.227-0.117-0.352-0.164L3.969,10.02c-0.172,0-0.262,0.027-0.27,0.082s0.027,0.113,0.105,0.176l0.117,0.094
		c0.109,0.062,0.219,0.164,0.328,0.305c0.094,0.109,0.172,0.234,0.234,0.375l0.094,0.188c0.078,0.234,0.227,0.414,0.445,0.539
		c0.188,0.109,0.414,0.18,0.68,0.211c0.188,0.016,0.383,0.008,0.586-0.023l0.258-0.023l0.023,1.43c0,0.094-0.035,0.172-0.105,0.234
		s-0.168,0.078-0.293,0.047c-1.188-0.391-2.148-1.098-2.883-2.121s-1.102-2.184-1.102-3.48c0-1.062,0.25-2.031,0.75-2.906
		S4.125,3.582,5,3.082S6.852,2.332,7.93,2.332z M4.203,10.23c0.031-0.031,0.07-0.035,0.117-0.012s0.062,0.055,0.047,0.094
		s-0.051,0.043-0.105,0.012S4.188,10.262,4.203,10.23z M4.461,10.418c0.031-0.031,0.07-0.023,0.117,0.023s0.055,0.086,0.023,0.117
		s-0.07,0.023-0.117-0.023S4.43,10.449,4.461,10.418z M4.695,10.723c0.031-0.016,0.059-0.02,0.082-0.012s0.043,0.027,0.059,0.059
		c0.047,0.062,0.047,0.109,0,0.141c-0.016,0.016-0.035,0.016-0.059,0s-0.051-0.031-0.082-0.047
		C4.664,10.785,4.664,10.738,4.695,10.723z M4.977,11.051c0.016-0.016,0.039-0.02,0.07-0.012s0.059,0.023,0.082,0.047
		s0.039,0.051,0.047,0.082s0.004,0.055-0.012,0.07C5.117,11.285,5.062,11.277,5,11.215c-0.031-0.031-0.047-0.062-0.047-0.094
		S4.961,11.066,4.977,11.051z M5.352,11.355c0.016-0.062,0.062-0.082,0.141-0.059s0.113,0.055,0.105,0.094s-0.027,0.066-0.059,0.082
		s-0.062,0.016-0.094,0s-0.059-0.035-0.082-0.059S5.336,11.371,5.352,11.355z M6.078,11.449c0-0.016-0.012-0.031-0.035-0.047
		s-0.059-0.023-0.105-0.023c-0.078,0-0.117,0.031-0.117,0.094s0.043,0.09,0.129,0.082S6.078,11.512,6.078,11.449z M6.383,11.309
		c0.078,0,0.121,0.023,0.129,0.07s-0.027,0.086-0.105,0.117c-0.031,0-0.059-0.004-0.082-0.012s-0.039-0.035-0.047-0.082
		S6.305,11.324,6.383,11.309z"/>
</g>
</svg>
