<?xml version="1.0" encoding="utf-8"?>
<!-- Generator: Adobe Illustrator 16.0.0, SVG Export Plug-In . SVG Version: 6.00 Build 0)  -->
<!DOCTYPE svg PUBLIC "-//W3C//DTD SVG 1.1//EN" "http://www.w3.org/Graphics/SVG/1.1/DTD/svg11.dtd">
<svg version="1.1" id="Layer_1" xmlns="http://www.w3.org/2000/svg" xmlns:xlink="http://www.w3.org/1999/xlink" x="0px" y="0px"
	 width="16px" height="16px" viewBox="0 0 16 16" enable-background="new 0 0 16 16" xml:space="preserve">
<g>
	<path fill="#FFFFFF" d="M12.781,5.867c0,1.125-0.273,2.211-0.82,3.258c-0.562,1.109-1.352,1.992-2.367,2.648
		c-1.109,0.734-2.383,1.102-3.82,1.102c-1.375,0-2.633-0.367-3.773-1.102c0.172,0.016,0.367,0.023,0.586,0.023
		c1.141,0,2.164-0.352,3.07-1.055c-0.547,0-1.027-0.16-1.441-0.48S3.516,9.539,3.359,9.055C3.516,9.07,3.664,9.078,3.805,9.078
		c0.219,0,0.438-0.023,0.656-0.07C3.898,8.883,3.43,8.594,3.055,8.141S2.492,7.172,2.492,6.594V6.547
		C2.836,6.75,3.203,6.859,3.594,6.875C3.266,6.641,3,6.344,2.797,5.984S2.492,5.23,2.492,4.801s0.117-0.84,0.352-1.23
		c0.609,0.766,1.355,1.375,2.238,1.828s1.824,0.703,2.824,0.75C7.875,5.961,7.859,5.773,7.859,5.586c0-0.438,0.109-0.848,0.328-1.23
		s0.516-0.684,0.891-0.902s0.781-0.328,1.219-0.328c0.359,0,0.691,0.07,0.996,0.211s0.574,0.328,0.809,0.562
		c0.562-0.109,1.086-0.305,1.57-0.586c-0.188,0.578-0.547,1.031-1.078,1.359C13.062,4.609,13.531,4.477,14,4.273
		c-0.344,0.5-0.758,0.93-1.242,1.289C12.773,5.625,12.781,5.727,12.781,5.867z"/>
</g>
</svg>
