<?xml version="1.0" encoding="utf-8"?>
<!-- Generator: Adobe Illustrator 15.1.0, SVG Export Plug-In . SVG Version: 6.00 Build 0)  -->
<!DOCTYPE svg PUBLIC "-//W3C//DTD SVG 1.1//EN" "http://www.w3.org/Graphics/SVG/1.1/DTD/svg11.dtd">
<svg version="1.1" id="Layer_1" xmlns="http://www.w3.org/2000/svg" xmlns:xlink="http://www.w3.org/1999/xlink" x="0px" y="0px"
	 width="50px" height="50px" viewBox="0 0 50 50" enable-background="new 0 0 50 50" xml:space="preserve">
<g id="Page-1">
	<g id="full">
		<path id="Combined-Shape" fill="#FFFFFF" d="M22.042,41.983l-2.495-0.406l-1.312-3.713l0.95-0.091l1.047,2.985l1.863,0.302
			c0.075-0.342,0.212-0.663,0.396-0.95c0.271-0.417,0.649-0.762,1.091-0.995v-0.826c-1.925-0.358-3.624-1.351-4.853-2.765
			c-0.174-0.194-0.344-0.409-0.495-0.621l0.832-0.437c0.111,0.158,0.227,0.306,0.354,0.454c0.953,1.098,2.226,1.908,3.661,2.305
			c0.455,0.167,0.932,0.278,1.424,0.324v4.835L23,42.139c0.085,0.376,0.274,0.71,0.539,0.972c0.364,0.357,0.862,0.585,1.414,0.585
			c0.553,0,1.054-0.228,1.418-0.585c0.261-0.258,0.444-0.586,0.529-0.954l-1.398,0.229V37.55c0.491-0.046,0.965-0.157,1.417-0.324
			c1.441-0.396,2.708-1.207,3.658-2.305c0.127-0.148,0.243-0.296,0.361-0.454l0.835,0.437c-0.162,0.212-0.319,0.427-0.493,0.621
			c-1.23,1.414-2.932,2.406-4.862,2.765v0.874c0.385,0.224,0.714,0.533,0.963,0.893c0.207,0.308,0.356,0.651,0.436,1.02l1.953-0.316
			l1.051-2.985l0.946,0.091l-1.311,3.713l-2.591,0.422c-0.071,0.688-0.382,1.292-0.842,1.753c-0.527,0.53-1.26,0.86-2.07,0.86
			c-0.804,0-1.545-0.33-2.069-0.86C22.42,43.288,22.11,42.678,22.042,41.983z M23.583,40.23c-0.12,0.111-0.227,0.237-0.314,0.373
			c-0.118,0.187-0.206,0.391-0.26,0.605l0.574,0.092V40.23z M26.9,41.223c-0.055-0.234-0.151-0.452-0.284-0.646
			c-0.06-0.088-0.126-0.171-0.198-0.248v0.972L26.9,41.223z M41.322,7.388l7.502,9.973l-8.412,8.998l-4.769-1.276l-0.259,1.888
			l-1.199,0.191c-0.236-1.226-0.752-2.358-1.466-3.34l0.684-0.629c0.521,0.693,0.95,1.459,1.257,2.277l0.209-1.551l5.252,1.41
			l7.507-8.031l-4.441-5.914l2.252,4.899l-5.072,4.929L39.45,20.81l0.719-0.693l0.152-0.146l0.506-0.48v-0.006l3.501-3.41
			l-3.785-8.22L41.322,7.388z M26.405,20.768l2.849-2.644l1.247,0.073l-0.909,0.869l-0.879,0.812
			c0.996,0.312,1.909,0.781,2.729,1.375l-0.684,0.65c-0.834-0.593-1.804-1.036-2.829-1.29l-0.382,0.357
			C27.231,20.9,26.807,20.825,26.405,20.768z M31.722,18.306l-0.049-0.037l5.015,0.29l2.567,1.151l-0.713,0.69l-2.084-0.926
			l-0.572-0.037l-2.714,2.71l-1.028,0.96c-0.209-0.224-0.422-0.431-0.656-0.633l0.671-0.636c0,0.003,0.01,0.006,0.019,0.006
			l0.479-0.476l0.013-0.015l1.985-1.99l-3.804-0.224L31.722,18.306z M25.502,24.761v-3.131c0.276,0.021,0.609,0.052,0.922,0.088
			v0.909h-0.006v1.43c0.771,0.215,1.487,0.568,2.101,1.041l1.073-0.99c-0.666-0.526-1.425-0.944-2.244-1.227v-0.968
			c1.383,0.417,2.616,1.181,3.608,2.186l-1.46,1.348v0.003l-0.282,0.266c0.468,0.484,0.856,1.042,1.15,1.662
			c0.033,0.067,0.062,0.137,0.092,0.203l-0.848,0.366c-0.03-0.063-0.054-0.12-0.076-0.179c-0.516-1.077-1.384-1.956-2.455-2.482
			C26.57,25.026,26.042,24.854,25.502,24.761z M30.878,25.417l0.677-0.627c0.786,1.004,1.354,2.18,1.617,3.471l1.133-0.173v-0.013
			l0.953-0.151l-0.697,5.094l-2.256,3.307l-0.223,0.646l-0.953-0.072l0.356-0.993l2.191-3.228l0.491-3.636l-0.455,0.069v-0.003
			l-1.312,0.206l-1.469,0.221c0.006,0.148,0.009,0.303,0.009,0.451c0,0.774-0.137,1.521-0.401,2.207l1.309,0.679
			c0.346-0.814,0.54-1.702,0.577-2.631l0.923-0.146c-0.009,1.456-0.4,2.834-1.078,4.027l-2.066-1.069l-0.061-0.033
			c-0.18,0.312-0.38,0.608-0.611,0.88c-0.788,0.957-1.872,1.675-3.114,2.018v0.505c-0.288,0.094-0.604,0.164-0.916,0.197V25.702
			c0.312,0.063,0.628,0.161,0.916,0.294v8.959c0.948-0.312,1.785-0.885,2.411-1.638c0.749-0.909,1.189-2.071,1.189-3.331v-0.312
			l-1.352,0.209v2.382h-0.922v-3.172l4.514-0.691C32.022,27.298,31.539,26.286,30.878,25.417z M8.676,7.388l0.793,0.466l-3.792,8.22
			l3.507,3.41L9.177,19.49l0.508,0.48l0.154,0.146l0.72,0.693l-0.92,0.403l-5.072-4.929l2.258-4.899l-4.447,5.914l7.511,8.031
			l5.248-1.41l0.206,1.551c0.316-0.818,0.741-1.584,1.26-2.277l0.678,0.629c-0.714,0.976-1.221,2.114-1.46,3.34l-1.203-0.191
			l-0.261-1.888l-4.769,1.276l-8.411-8.998L8.676,7.388z M19.504,18.196l1.25-0.073l2.839,2.644
			c-0.397,0.057-0.816,0.133-1.135,0.202l-0.38-0.357c-1.035,0.254-1.991,0.697-2.832,1.29l-0.68-0.65
			c0.816-0.594,1.729-1.063,2.72-1.375l-0.872-0.812L19.504,18.196z M13.317,18.559l5.015-0.29l-0.045,0.037l0.871,0.835
			l-3.812,0.224l1.993,1.99l0.007,0.003l0.488,0.488c0,0,0.006-0.003,0.009-0.006l0.672,0.636c-0.228,0.202-0.443,0.409-0.644,0.633
			l-1.035-0.96l-2.723-2.71l-0.571,0.037L11.466,20.4l-0.72-0.69L13.317,18.559z M23.122,21.788c0.404-0.08,0.968-0.125,1.385-0.159
			v12.605c-0.319-0.052-0.629-0.148-0.924-0.267v-8.404v-1.62v-1.317c-1.184,0.243-2.258,0.757-3.166,1.48l1.069,0.99
			c0.361-0.275,0.759-0.512,1.178-0.703v1.033c-1.011,0.563-1.81,1.45-2.268,2.519l-0.847-0.366c0.3-0.692,0.719-1.325,1.244-1.865
			l-0.291-0.266l0.009-0.003l-1.454-1.348C20.147,22.98,21.547,22.166,23.122,21.788z M16.829,28.261
			c0.268-1.291,0.835-2.467,1.621-3.471l0.674,0.627c-0.661,0.869-1.142,1.881-1.381,2.985l4.518,0.691v3.172h-0.927v-2.382
			l-1.345-0.209c-0.003,0.103-0.009,0.209-0.009,0.312c0,1.26,0.446,2.422,1.199,3.331c0.491,0.588,1.107,1.066,1.809,1.393v0.006
			c0.067,0.03,0.128,0.057,0.191,0.085c0.055,0.024,0.109,0.043,0.164,0.063c0.048,0.021,0.097,0.039,0.148,0.057
			c0.03,0.007,0.061,0.028,0.091,0.034v-0.003c0.302,0.1,0.61,0.173,0.924,0.222v1.446c-0.313-0.033-0.622-0.104-0.924-0.197v-0.505
			c-1.234-0.343-2.315-1.061-3.114-2.018c-0.224-0.271-0.431-0.568-0.61-0.88l-0.063,0.033l-2.058,1.069
			c-0.674-1.193-1.065-2.571-1.087-4.027l0.929,0.146c0.031,0.929,0.23,1.816,0.57,2.631l1.318-0.679
			c-0.265-0.687-0.41-1.433-0.41-2.207c0-0.148,0.003-0.303,0.015-0.451l-1.465-0.221l-1.315-0.206v0.003l-0.458-0.069l0.491,3.636
			l2.198,3.228l0.353,0.993l-0.95,0.072l-0.234-0.646l-2.243-3.307l-0.697-5.094l0.946,0.151l0.006,0.013L16.829,28.261z"/>
	</g>
</g>
</svg>
