<svg version="1.1" id="Layer_1" xmlns="http://www.w3.org/2000/svg" xmlns:xlink="http://www.w3.org/1999/xlink" x="0px" y="0px"
	 width="50px" height="50px" viewBox="25 25 50 50" enable-background="new 25 25 50 50" xml:space="preserve">
<path fill="#FFFFFF" d="M63.979,47.419c-1.801,0-3.31,1.231-3.741,2.897l-3.228-0.098c-0.217-1.471-0.869-2.797-1.824-3.847
	l4.078-5.744c0.375,0.215,0.811,0.339,1.273,0.339c1.426,0,2.581-1.156,2.581-2.581s-1.155-2.581-2.581-2.581
	c-1.424,0-2.58,1.156-2.58,2.581c0,0.645,0.238,1.233,0.63,1.685l-4.886,5.049c-1.134-0.72-2.475-1.143-3.917-1.143
	c-1.543,0-2.974,0.48-4.153,1.299l-3.495-3.36c0.214-0.414,0.336-0.881,0.336-1.379c0-1.664-1.348-3.011-3.011-3.011
	c-1.664,0-3.011,1.347-3.011,3.011c0,1.663,1.348,3.01,3.011,3.01c0.456,0,0.886-0.104,1.273-0.285l3.223,3.624
	c-0.929,1.227-1.485,2.749-1.485,4.405c0,1.08,0.24,2.102,0.66,3.025l-3.857,2.338c-0.756-0.66-1.742-1.062-2.825-1.062
	c-2.375,0-4.301,1.926-4.301,4.301c0,2.376,1.926,4.302,4.301,4.302c2.376,0,4.302-1.926,4.302-4.302
	c0-0.463-0.076-0.907-0.21-1.324l3.58-2.652c1.341,1.638,3.379,2.686,5.662,2.686c3.673,0,6.706-2.711,7.225-6.239l3.228-0.099
	c0.432,1.666,1.94,2.897,3.741,2.897c2.139,0,3.871-1.732,3.871-3.87C67.85,49.15,66.117,47.419,63.979,47.419z"/>
</svg>
