<?xml version="1.0" encoding="utf-8"?>
<!-- Generator: Adobe Illustrator 15.1.0, SVG Export Plug-In . SVG Version: 6.00 Build 0)  -->
<!DOCTYPE svg PUBLIC "-//W3C//DTD SVG 1.1//EN" "http://www.w3.org/Graphics/SVG/1.1/DTD/svg11.dtd">
<svg version="1.1" id="Layer_1" xmlns="http://www.w3.org/2000/svg" xmlns:xlink="http://www.w3.org/1999/xlink" x="0px" y="0px"
	 width="50px" height="50px" viewBox="0 0 50 50" enable-background="new 0 0 50 50" xml:space="preserve">
<g>
	<path fill="#FFFFFF" d="M40.771,32.924c-0.383,1.788-1.807,3.103-3.522,3.305c-4.053,0.452-8.159,0.452-12.247,0.452
		c-4.089,0-8.196,0-12.247-0.452c-1.717-0.202-3.141-1.517-3.542-3.305c-0.565-2.539-0.565-5.312-0.565-7.923s0-5.386,0.584-7.922
		c0.401-1.788,1.807-3.103,3.523-3.306c4.051-0.454,8.158-0.454,12.247-0.454c4.088,0,8.194,0,12.247,0.454
		c1.716,0.203,3.14,1.518,3.541,3.306c0.564,2.536,0.564,5.312,0.564,7.922S41.354,30.385,40.771,32.924z M31.46,24.016
		l-9.344-5.841c-0.364-0.239-0.821-0.239-1.186-0.037c-0.366,0.2-0.603,0.602-0.603,1.022v11.683c0,0.42,0.236,0.819,0.603,1.021
		c0.183,0.091,0.364,0.144,0.565,0.144c0.22,0,0.438-0.053,0.62-0.181l9.344-5.843c0.349-0.199,0.548-0.582,0.548-0.983
		C32.008,24.599,31.809,24.216,31.46,24.016z"/>
</g>
</svg>
