<svg version="1.1" id="Layer_1" xmlns="http://www.w3.org/2000/svg" xmlns:xlink="http://www.w3.org/1999/xlink" x="0px" y="0px"
	 width="50px" height="50px" viewBox="25 25 50 50" enable-background="new 25 25 50 50" xml:space="preserve">
<path fill="#FFFFFF" d="M66.035,52.728l-0.104,0.725c-0.043,0.261-0.067,0.544-0.132,0.843l-0.238,0.974
	c-0.432,1.646-1.123,3.212-2.047,4.638c-1.203,1.879-2.768,3.498-4.604,4.764c-2.193,1.476-4.7,2.42-7.322,2.758
	c-0.346,0.06-0.705,0.051-1.059,0.08l-0.535,0.035h-0.271c-0.032,0,0,0,0,0h-0.235c-0.75-0.004-1.5-0.057-2.243-0.162
	c-1.492-0.194-2.951-0.594-4.334-1.188c-1.441-0.628-2.79-1.446-4.013-2.433c-1.24-1.035-2.337-2.233-3.263-3.558
	c-0.916-1.37-1.639-2.858-2.151-4.423c-0.471-1.586-0.733-3.229-0.775-4.881v-1.295l0.11-1.231l0.206-1.235
	c0.1-0.421,0.182-0.818,0.295-1.218c0.438-1.618,1.113-3.162,2.002-4.582c1.441-2.299,3.444-4.192,5.818-5.502
	c1.903,0.359,4.436,0.754,5.359,0.511c0.954-0.254,1.712-0.974,2.019-1.911h1.421l0.564,0.043c0.367,0.033,0.771,0.033,1.098,0.097
	L51.6,34.573c0.654,0.105,1.304,0.245,1.945,0.422l0.961,0.262l0.916,0.346H55.42c1.162,0.446,2.276,1.011,3.322,1.687
	c1.818,1.243,3.383,2.82,4.611,4.65c0.94,1.403,1.654,2.946,2.109,4.573l0.269,0.961c0.071,0.304,0.1,0.6,0.151,0.869l0.131,0.75
	c0.038,0.228,0.033,0.422,0.047,0.628l0.07,1.146l-0.049,1.19C66.061,52.26,66.068,52.504,66.035,52.728L66.035,52.728z
	 M42.649,33.14c0.695-0.437,1.426-0.812,2.186-1.126c0.611-0.16,1.181,0,1.265,0.325v0.001c0.026,0.232-0.083,0.461-0.283,0.584
	c-0.292,0.114-0.582,0.241-0.868,0.367c-0.747,0.066-1.499,0.089-2.248,0.068C42.532,33.355,42.498,33.223,42.649,33.14z
	 M68.418,49.557c0-0.216,0-0.459-0.043-0.722l-0.123-0.843c-0.051-0.308-0.084-0.645-0.156-1l-0.273-1.113
	c-1.508-5.861-5.814-10.601-11.504-12.664c-0.355-0.122-0.709-0.254-1.07-0.371l-1.117-0.273l-0.002-0.002
	c-0.781-0.178-1.574-0.305-2.373-0.378c-0.422-0.051-0.755-0.033-1.139-0.054H49.42c-0.349,0-0.7,0.054-1.049,0.105H48.37
	c-0.618-1.247-2.029-1.884-3.373-1.521c-1.135,0.303-3.895,2.644-5.3,3.884v-0.002c-0.168,0.146-0.238,0.375-0.182,0.591
	c0.058,0.215,0.232,0.378,0.451,0.421l0.362,0.054c-2.182,1.383-4.072,3.182-5.564,5.292c-1.013,1.434-1.812,3.01-2.368,4.675
	c-0.135,0.421-0.24,0.843-0.362,1.265c-0.123,0.421-0.169,0.881-0.27,1.315l-0.173,1.365l-0.076,1.265
	c0,1.796,0.242,3.581,0.72,5.313c0.512,1.703,1.256,3.33,2.21,4.834c0.97,1.465,2.131,2.793,3.452,3.951
	c1.314,1.111,2.771,2.042,4.334,2.766c1.528,0.703,3.147,1.188,4.81,1.441c0.781,0.128,1.568,0.203,2.357,0.229h0.632l0.594-0.025
	c0.397-0.025,0.789,0,1.176-0.072c5.502-0.575,10.461-3.574,13.521-8.18c1.081-1.605,1.897-3.377,2.421-5.24l0.295-1.105
	c0.082-0.354,0.121-0.705,0.178-1.021l0.139-0.885c0.037-0.271,0.033-0.482,0.055-0.688l0.076-1.24V50.88L68.418,49.557z"/>
</svg>
