<svg version="1.1" id="Layer_1" xmlns="http://www.w3.org/2000/svg" xmlns:xlink="http://www.w3.org/1999/xlink" x="0px" y="0px"
	 width="50px" height="50px" viewBox="25 25 50 50" enable-background="new 25 25 50 50" xml:space="preserve">
<g>
	<g>
		<path fill="#FFFFFF" d="M29.689,34.535c-0.082-0.705-0.695-1.256-1.423-1.256c-0.784,0-1.427,0.636-1.427,1.42
			c0,0.783,0.633,1.42,1.416,1.42c0.688,0,1.262-0.492,1.392-1.141C40.02,35.068,48.5,41.202,49.171,48.92
			c-0.545-1.06-1.595-2.806-3.304-4.571c-2.468-2.548-6.831-5.583-13.596-5.583c-0.025,0-0.052,0.005-0.075,0.014
			c-0.112-0.672-0.694-1.185-1.398-1.185c-0.783,0-1.42,0.637-1.42,1.419c0,0.783,0.637,1.421,1.42,1.421
			c0.721,0,1.317-0.541,1.406-1.239c0.022,0.008,0.045,0.012,0.067,0.012c6.601,0,10.856,2.956,13.265,5.436
			c1.546,1.594,2.551,3.2,3.116,4.251c-0.738-0.664-1.878-1.61-3.312-2.549c-2.405-1.576-6.156-3.452-10.375-3.457
			c-0.107-0.679-0.693-1.202-1.402-1.202c-0.783,0-1.42,0.637-1.42,1.421c0,0.782,0.637,1.419,1.42,1.419
			c0.707,0,1.292-0.519,1.399-1.196c6.302,0.008,11.641,4.295,13.557,6.042c-2.124-0.762-7.198-2.435-10.997-2.508
			c-0.059-0.731-0.67-1.308-1.414-1.308c-0.783,0-1.421,0.637-1.421,1.419c0,0.783,0.638,1.421,1.421,1.421
			c0.669,0,1.23-0.507,1.378-1.133c3.756,0.064,8.819,1.763,10.908,2.452h-5.742h-1.595c-0.084-0.689-0.683-1.213-1.41-1.213
			c-0.782,0-1.42,0.657-1.42,1.44c0,0.783,0.638,1.398,1.42,1.398c0.688,0,1.264-0.477,1.394-1.164h1.611h5.638
			c-2.146,0.917-7.106,2.421-10.804,2.484c-0.147-0.625-0.708-1.074-1.378-1.074c-0.783,0-1.421,0.645-1.421,1.428
			s0.638,1.426,1.421,1.426c0.744,0,1.355-0.578,1.414-1.307c3.799-0.072,8.873-1.746,10.997-2.508
			c-1.916,1.748-7.255,6.035-13.557,6.043c-0.107-0.678-0.692-1.195-1.399-1.195c-0.783,0-1.42,0.637-1.42,1.42
			s0.637,1.42,1.42,1.42c0.709,0,1.295-0.521,1.402-1.201c4.219-0.006,7.97-1.883,10.375-3.457c1.461-0.957,2.615-1.92,3.352-2.586
			c-0.555,1.047-1.565,2.686-3.143,4.311c-2.409,2.486-6.669,5.449-13.278,5.449c-0.021,0-0.04,0.006-0.062,0.012
			c-0.072-0.715-0.679-1.273-1.411-1.273c-0.782,0-1.42,0.635-1.42,1.42c0,0.781,0.638,1.42,1.42,1.42
			c0.691,0,1.268-0.496,1.394-1.15c0.025,0.01,0.053,0.016,0.081,0.016c6.765,0,11.126-3.035,13.594-5.584
			c1.681-1.734,2.725-3.453,3.277-4.518c-0.846,7.6-9.275,13.598-19.547,13.668c-0.192-0.559-0.721-0.957-1.342-0.957
			c-0.783,0-1.42,0.637-1.42,1.418c0,0.783,0.637,1.42,1.42,1.42c0.784,0,1.42-0.637,1.42-1.42c0-0.006,0.03-0.012,0.03-0.02
			c10.969-0.104,19.776-6.867,20.006-15.2v-0.173C49.71,41.493,40.734,34.637,29.689,34.535 M29.218,34.852
			c-0.074,0.466-0.478,0.824-0.964,0.824c-0.539,0-0.979-0.438-0.979-0.977s0.439-0.978,0.979-0.978
			c0.519,0,0.941,0.406,0.974,0.916c-0.021,0.033-0.033,0.074-0.033,0.117C29.194,34.789,29.203,34.822,29.218,34.852 M30.798,39.99
			c-0.539,0-0.979-0.438-0.979-0.977c0-0.538,0.439-0.978,0.979-0.978s0.979,0.439,0.979,0.978
			C31.776,39.552,31.337,39.99,30.798,39.99 M33.562,44.083c-0.538,0-0.978-0.438-0.978-0.976c0-0.54,0.439-0.979,0.978-0.979
			c0.54,0,0.979,0.439,0.979,0.979C34.541,43.645,34.103,44.083,33.562,44.083 M37.065,47.17c-0.089,0.445-0.485,0.784-0.958,0.784
			c-0.539,0-0.979-0.44-0.979-0.978c0-0.539,0.438-0.977,0.979-0.977c0.533,0,0.968,0.43,0.976,0.961
			c-0.023,0.035-0.036,0.076-0.036,0.121C37.048,47.114,37.054,47.143,37.065,47.17 M39.646,50.941
			c-0.539,0-0.977-0.439-0.977-0.978c0-0.539,0.438-0.978,0.977-0.978c0.54,0,0.978,0.438,0.978,0.978
			C40.624,50.502,40.187,50.941,39.646,50.941 M36.107,54c-0.539,0-0.979-0.438-0.979-0.977s0.438-0.977,0.979-0.977
			c0.472,0,0.869,0.336,0.958,0.783c-0.012,0.027-0.018,0.055-0.018,0.088c0,0.043,0.013,0.086,0.036,0.121
			C37.075,53.57,36.642,54,36.107,54 M33.562,57.873c-0.538,0-0.978-0.439-0.978-0.979s0.439-0.979,0.978-0.979
			c0.54,0,0.979,0.439,0.979,0.979S34.103,57.873,33.562,57.873 M30.798,61.965c-0.539,0-0.979-0.439-0.979-0.977
			c0-0.539,0.439-0.979,0.979-0.979s0.979,0.439,0.979,0.979C31.776,61.525,31.337,61.965,30.798,61.965 M28.254,66.279
			c-0.54,0-0.979-0.439-0.979-0.979c0-0.537,0.438-0.977,0.979-0.977c0.45,0,0.826,0.307,0.94,0.721c0,0.006,0,0.012,0,0.018
			c0,0.037,0.01,0.07,0.027,0.104c0.004,0.045,0.009,0.09,0.009,0.135C29.23,65.84,28.793,66.279,28.254,66.279"/>
		<path fill="#FFFFFF" d="M50.397,50.082c0.232,8.333,8.983,15.096,19.952,15.2c0,0.008-0.014,0.014-0.014,0.02
			c0,0.781,0.63,1.42,1.413,1.42c0.782,0,1.417-0.637,1.417-1.42s-0.639-1.42-1.423-1.42c-0.62,0-1.148,0.4-1.339,0.959
			c-10.274-0.07-18.703-6.068-19.552-13.67c0.555,1.064,1.596,2.783,3.276,4.52c2.469,2.547,6.832,5.584,13.596,5.584
			c0.027,0,0.057-0.006,0.08-0.016c0.127,0.654,0.703,1.15,1.395,1.15c0.782,0,1.42-0.637,1.42-1.42c0-0.785-0.637-1.42-1.42-1.42
			c-0.733,0-1.342,0.559-1.414,1.273c-0.02-0.008-0.041-0.012-0.061-0.012c-6.609,0-10.869-2.963-13.277-5.449
			c-1.576-1.625-2.587-3.264-3.143-4.311c0.736,0.666,1.892,1.629,3.351,2.586c2.407,1.576,6.157,3.453,10.377,3.457
			c0.104,0.68,0.692,1.201,1.401,1.201c0.783,0,1.421-0.637,1.421-1.42c0-0.781-0.638-1.42-1.421-1.42
			c-0.707,0-1.293,0.518-1.399,1.195c-6.302-0.008-11.642-4.297-13.558-6.045c2.124,0.762,7.201,2.436,10.998,2.508
			c0.059,0.729,0.67,1.305,1.414,1.305c0.783,0,1.421-0.645,1.421-1.43c0-0.783-0.638-1.434-1.421-1.434
			c-0.668,0-1.23,0.465-1.379,1.088c-3.694-0.062-8.653-1.566-10.803-2.484h5.638h1.612c0.129,0.689,0.705,1.158,1.393,1.158
			c0.782,0,1.42-0.609,1.42-1.392c0-0.783-0.638-1.433-1.42-1.433c-0.727,0-1.327,0.517-1.409,1.206h-1.596h-5.741
			c2.088-0.689,7.152-2.388,10.906-2.452c0.148,0.625,0.711,1.145,1.379,1.145c0.783,0,1.421-0.644,1.421-1.427
			c0-0.782-0.638-1.424-1.421-1.424c-0.744,0-1.355,0.576-1.414,1.306c-3.797,0.073-8.874,1.745-10.998,2.508
			c1.916-1.749,7.256-6.035,13.558-6.043c0.106,0.676,0.692,1.195,1.399,1.195c0.783,0,1.421-0.637,1.421-1.42
			c0-0.783-0.638-1.42-1.421-1.42c-0.709,0-1.297,0.522-1.401,1.202c-4.22,0.006-7.97,1.882-10.377,3.457
			c-1.435,0.938-2.574,1.885-3.312,2.549c0.565-1.053,1.57-2.658,3.117-4.251c2.408-2.479,6.664-5.435,13.264-5.435
			c0.023,0,0.047-0.005,0.067-0.012c0.089,0.698,0.687,1.239,1.407,1.239c0.783,0,1.42-0.638,1.42-1.421
			c0-0.782-0.637-1.419-1.42-1.419c-0.703,0-1.287,0.513-1.398,1.185c-0.025-0.01-0.051-0.014-0.076-0.014
			c-6.764,0-11.127,3.036-13.594,5.583c-1.711,1.765-2.759,3.512-3.305,4.572c0.674-7.718,9.152-13.852,19.525-13.942
			c0.131,0.65,0.705,1.141,1.391,1.141c0.785,0,1.422-0.637,1.422-1.419c0-0.783-0.635-1.42-1.417-1.42
			c-0.728,0-1.303,0.551-1.384,1.256c-11.048,0.102-19.966,6.958-19.966,15.374V50.082L50.397,50.082z M70.779,34.852
			c0.014-0.03,0.024-0.062,0.024-0.098c0-0.043-0.013-0.083-0.036-0.117c0.031-0.51,0.458-0.916,0.975-0.916
			c0.539,0,0.979,0.439,0.979,0.978c0,0.539-0.439,0.977-0.979,0.977C71.256,35.676,70.853,35.318,70.779,34.852 M68.221,39.012
			c0-0.539,0.439-0.977,0.979-0.977c0.537,0,0.977,0.438,0.977,0.977c0,0.54-0.439,0.978-0.977,0.978
			C68.66,39.99,68.221,39.552,68.221,39.012 M65.456,43.106c0-0.539,0.438-0.978,0.978-0.978s0.977,0.438,0.977,0.978
			s-0.438,0.977-0.977,0.977S65.456,43.645,65.456,43.106 M59.372,49.963c0-0.539,0.438-0.977,0.978-0.977s0.977,0.438,0.977,0.977
			c0,0.539-0.438,0.978-0.977,0.978S59.372,50.502,59.372,49.963 M65.456,56.895c0-0.539,0.438-0.979,0.978-0.979
			s0.977,0.439,0.977,0.979c0,0.537-0.438,0.977-0.977,0.977S65.456,57.434,65.456,56.895 M68.221,60.988
			c0-0.539,0.439-0.979,0.979-0.979c0.537,0,0.977,0.439,0.977,0.979c0,0.537-0.439,0.977-0.977,0.977
			C68.66,61.965,68.221,61.525,68.221,60.988 M70.765,65.301c0-0.045,0.005-0.092,0.011-0.135c0.018-0.033,0.028-0.066,0.028-0.104
			c0-0.006-0.002-0.012-0.002-0.018c0.111-0.414,0.491-0.721,0.94-0.721c0.539,0,0.979,0.439,0.979,0.977
			c0,0.539-0.439,0.979-0.979,0.979C71.205,66.279,70.765,65.84,70.765,65.301 M62.931,47.169c0.013-0.026,0.02-0.055,0.02-0.087
			c0-0.044-0.016-0.085-0.038-0.12C62.92,46.43,63.355,46,63.889,46c0.539,0,0.978,0.438,0.978,0.977
			c0,0.538-0.438,0.977-0.978,0.977C63.416,47.954,63.02,47.616,62.931,47.169 M62.912,53.039c0.022-0.035,0.038-0.078,0.038-0.121
			c0-0.031-0.007-0.061-0.02-0.088c0.089-0.447,0.485-0.783,0.958-0.783c0.539,0,0.978,0.438,0.978,0.977S64.428,54,63.889,54
			C63.355,54,62.92,53.57,62.912,53.039"/>
	</g>
</g>
</svg>
