<?xml version="1.0" encoding="utf-8"?>
<!-- Generator: Adobe Illustrator 15.1.0, SVG Export Plug-In  -->
<!DOCTYPE svg PUBLIC "-//W3C//DTD SVG 1.1//EN" "http://www.w3.org/Graphics/SVG/1.1/DTD/svg11.dtd" [
	<!ENTITY ns_flows "http://ns.adobe.com/Flows/1.0/">
]>
<svg version="1.1"
	 xmlns="http://www.w3.org/2000/svg" xmlns:xlink="http://www.w3.org/1999/xlink" xmlns:a="http://ns.adobe.com/AdobeSVGViewerExtensions/3.0/"
	 x="0px" y="0px" width="113px" height="82px" viewBox="-1.298 -1.036 113 82"
	 overflow="visible" enable-background="new -1.298 -1.036 113 82" xml:space="preserve">
<defs>
</defs>
<path fill="#E52627" d="M6.825,3.003C6.631,1.314,5.163,0.001,3.427,0.001c-1.874,0-3.409,1.52-3.409,3.393
	c0,1.873,1.513,3.393,3.384,3.393c1.644,0,3.015-1.175,3.325-2.725c24.787,0.213,45.055,14.872,46.66,33.319
	c-1.302-2.533-3.811-6.706-7.896-10.925C39.592,20.368,29.166,13.11,13,13.11c-0.063,0-0.124,0.011-0.18,0.033
	c-0.269-1.606-1.663-2.833-3.344-2.833c-1.871,0-3.394,1.523-3.394,3.393c0,1.873,1.522,3.396,3.394,3.396
	c1.724,0,3.148-1.295,3.36-2.961c0.055,0.019,0.107,0.029,0.163,0.029c15.774,0,25.946,7.063,31.702,12.993
	c3.696,3.806,6.097,7.646,7.449,10.16c-1.766-1.588-4.49-3.848-7.917-6.092c-5.749-3.768-14.715-8.249-24.798-8.264
	c-0.255-1.622-1.657-2.871-3.352-2.871c-1.872,0-3.393,1.52-3.393,3.393s1.521,3.393,3.393,3.393c1.689,0,3.089-1.238,3.348-2.855
	C34.49,24.043,47.25,34.288,51.829,38.465c-5.076-1.82-17.204-5.821-26.284-5.994c-0.14-1.748-1.599-3.126-3.38-3.126
	c-1.873,0-3.395,1.523-3.395,3.393c0,1.873,1.521,3.396,3.395,3.396c1.599,0,2.94-1.212,3.295-2.706
	c8.974,0.154,21.075,4.215,26.07,5.862H37.806h-3.813c-0.196-1.647-1.631-2.9-3.37-2.9c-1.868,0-3.391,1.568-3.391,3.441
	c0,1.867,1.522,3.34,3.391,3.34c1.644,0,3.021-1.134,3.331-2.781h3.853H51.28c-5.13,2.195-16.985,5.791-25.818,5.941
	c-0.354-1.494-1.696-2.571-3.295-2.571c-1.873,0-3.395,1.543-3.395,3.412c0,1.872,1.521,3.403,3.395,3.403
	c1.781,0,3.24-1.377,3.38-3.118c9.08-0.177,21.208-4.175,26.284-5.994c-4.579,4.178-17.34,14.423-32.398,14.442
	c-0.259-1.618-1.658-2.856-3.348-2.856c-1.872,0-3.393,1.522-3.393,3.394c0,1.873,1.521,3.396,3.393,3.396
	c1.694,0,3.097-1.25,3.352-2.875c10.083-0.011,19.049-4.5,24.798-8.26c3.49-2.286,6.251-4.591,8.011-6.183
	c-1.326,2.504-3.743,6.418-7.514,10.307c-5.76,5.938-15.94,13.023-31.733,13.023c-0.051,0-0.1,0.012-0.151,0.026
	c-0.173-1.708-1.62-3.044-3.372-3.044c-1.871,0-3.394,1.52-3.394,3.393c0,1.869,1.522,3.396,3.394,3.396
	c1.651,0,3.028-1.189,3.328-2.751c0.062,0.022,0.128,0.036,0.195,0.036c16.166,0,26.59-7.258,32.488-13.346
	c4.02-4.146,6.513-8.252,7.834-10.801C51.297,60.93,31.152,75.267,6.6,75.432c-0.458-1.332-1.721-2.288-3.205-2.288
	C1.522,73.144,0,74.666,0,76.536c0,1.873,1.521,3.393,3.395,3.393s3.395-1.52,3.395-3.393c0-0.016,0.069-0.03,0.069-0.049
	c26.215-0.248,47.267-16.412,47.815-36.33v-0.413C54.675,19.632,33.225,3.247,6.825,3.003 M5.699,3.761
	c-0.178,1.114-1.141,1.97-2.304,1.97c-1.289,0-2.338-1.051-2.338-2.338c0-1.287,1.049-2.338,2.338-2.338
	c1.238,0,2.25,0.972,2.327,2.191c-0.048,0.08-0.079,0.177-0.079,0.282C5.643,3.611,5.664,3.69,5.699,3.761 M9.475,16.041
	c-1.288,0-2.337-1.047-2.337-2.338c0-1.287,1.049-2.335,2.337-2.335c1.287,0,2.338,1.048,2.338,2.335
	C11.813,14.994,10.763,16.041,9.475,16.041 M16.084,25.821c-1.287,0-2.336-1.047-2.336-2.334s1.049-2.338,2.336-2.338
	c1.289,0,2.339,1.051,2.339,2.338S17.373,25.821,16.084,25.821 M24.455,33.2c-0.214,1.065-1.159,1.876-2.289,1.876
	c-1.289,0-2.336-1.051-2.336-2.338s1.047-2.334,2.336-2.334c1.274,0,2.313,1.028,2.332,2.297c-0.054,0.086-0.086,0.184-0.086,0.293
	C24.412,33.068,24.426,33.136,24.455,33.2 M30.623,42.214c-1.287,0-2.332-1.051-2.332-2.338s1.045-2.335,2.332-2.335
	c1.291,0,2.338,1.048,2.338,2.335S31.914,42.214,30.623,42.214 M22.166,49.528c-1.289,0-2.336-1.047-2.336-2.338
	c0-1.287,1.047-2.338,2.336-2.338c1.13,0,2.075,0.812,2.289,1.881c-0.029,0.062-0.043,0.131-0.043,0.205
	c0,0.105,0.032,0.207,0.086,0.289C24.479,48.501,23.44,49.528,22.166,49.528 M16.084,58.78c-1.287,0-2.336-1.047-2.336-2.334
	c0-1.291,1.049-2.338,2.336-2.338c1.289,0,2.339,1.047,2.339,2.338C18.423,57.733,17.373,58.78,16.084,58.78 M9.475,68.56
	c-1.288,0-2.337-1.047-2.337-2.334s1.049-2.334,2.337-2.334c1.287,0,2.338,1.047,2.338,2.334S10.763,68.56,9.475,68.56
	 M3.395,78.874c-1.289,0-2.338-1.051-2.338-2.338s1.049-2.334,2.338-2.334c1.075,0,1.978,0.73,2.25,1.723
	c0,0.012-0.002,0.025-0.002,0.041c0,0.086,0.022,0.173,0.063,0.244c0.012,0.107,0.022,0.218,0.022,0.326
	C5.729,77.823,4.682,78.874,3.395,78.874"/>
<path fill="#FFFFFF" d="M56.322,40.158c0.553,19.917,21.467,36.082,47.682,36.33c0,0.019-0.034,0.033-0.034,0.049
	c0,1.869,1.509,3.393,3.382,3.393c1.869,0,3.387-1.523,3.387-3.393c0-1.87-1.529-3.393-3.396-3.393
	c-1.486,0-2.748,0.956-3.205,2.288c-24.555-0.165-44.704-14.502-46.729-32.67c1.325,2.55,3.814,6.654,7.83,10.802
	c5.899,6.088,16.33,13.346,32.493,13.346c0.067,0,0.136-0.016,0.191-0.037c0.305,1.562,1.682,2.751,3.333,2.751
	c1.873,0,3.393-1.527,3.393-3.396c0-1.873-1.52-3.394-3.393-3.394c-1.754,0-3.201,1.336-3.379,3.044
	c-0.045-0.016-0.098-0.025-0.146-0.025c-15.796,0-25.975-7.082-31.731-13.023c-3.771-3.889-6.185-7.803-7.514-10.307
	c1.762,1.592,4.522,3.896,8.01,6.183c5.754,3.764,14.72,8.249,24.799,8.26c0.253,1.625,1.656,2.875,3.353,2.875
	c1.869,0,3.394-1.522,3.394-3.396c0-1.869-1.523-3.394-3.394-3.394c-1.688,0-3.089,1.238-3.348,2.856
	c-15.058-0.021-27.821-10.27-32.397-14.445c5.076,1.818,17.205,5.816,26.284,5.988c0.14,1.746,1.599,3.119,3.382,3.119
	c1.868,0,3.393-1.543,3.393-3.412c0-1.871-1.523-3.43-3.393-3.43c-1.603,0-2.941,1.11-3.3,2.604
	c-8.83-0.15-20.683-3.746-25.815-5.941h13.473h3.854c0.309,1.647,1.682,2.767,3.325,2.767c1.873,0,3.396-1.457,3.396-3.324
	c0-1.873-1.522-3.427-3.396-3.427c-1.733,0-3.171,1.238-3.366,2.886h-3.812H59.203c4.992-1.647,17.092-5.708,26.064-5.862
	c0.357,1.494,1.697,2.736,3.299,2.736c1.869,0,3.395-1.539,3.395-3.408c0-1.872-1.524-3.403-3.395-3.403
	c-1.781,0-3.242,1.377-3.381,3.122c-9.079,0.173-21.208,4.17-26.285,5.994c4.577-4.182,17.342-14.423,32.398-14.445
	c0.259,1.617,1.658,2.855,3.348,2.855c1.869,0,3.393-1.523,3.393-3.393c0-1.873-1.522-3.393-3.393-3.393
	c-1.695,0-3.1,1.246-3.352,2.871c-10.08,0.015-19.047,4.5-24.801,8.264c-3.426,2.244-6.15,4.504-7.912,6.092
	c1.35-2.515,3.75-6.354,7.447-10.16c5.758-5.93,15.928-12.993,31.701-12.993c0.057,0,0.113-0.011,0.161-0.025
	c0.215,1.662,1.642,2.957,3.363,2.957c1.872,0,3.393-1.523,3.393-3.396c0-1.869-1.521-3.393-3.393-3.393
	c-1.683,0-3.074,1.23-3.345,2.833c-0.057-0.022-0.115-0.033-0.181-0.033c-16.164,0-26.594,7.258-32.493,13.346
	c-4.087,4.219-6.59,8.392-7.894,10.925c1.608-18.449,21.876-33.108,46.669-33.322c0.312,1.554,1.686,2.725,3.324,2.725
	c1.873,0,3.396-1.521,3.396-3.393c0-1.869-1.517-3.393-3.386-3.393c-1.741,0-3.114,1.313-3.31,3.002
	c-26.401,0.241-47.715,16.63-47.715,36.743V40.158z M105.031,3.761c0.034-0.071,0.058-0.15,0.058-0.237
	c0-0.101-0.03-0.194-0.083-0.277c0.074-1.22,1.093-2.191,2.33-2.191c1.287,0,2.339,1.051,2.339,2.338
	c0,1.287-1.052,2.338-2.339,2.338C106.172,5.731,105.208,4.876,105.031,3.761 M98.917,13.703c0-1.287,1.052-2.335,2.339-2.335
	c1.286,0,2.334,1.048,2.334,2.335c0,1.291-1.048,2.338-2.334,2.338C99.969,16.041,98.917,14.994,98.917,13.703 M92.308,23.487
	c0-1.291,1.047-2.335,2.338-2.335c1.287,0,2.335,1.044,2.335,2.335c0,1.287-1.048,2.334-2.335,2.334
	C93.355,25.821,92.308,24.774,92.308,23.487 M77.769,39.877c0-1.287,1.047-2.335,2.334-2.335c1.291,0,2.34,1.048,2.34,2.335
	s-1.049,2.338-2.34,2.338C78.816,42.214,77.769,41.164,77.769,39.877 M92.308,56.446c0-1.291,1.047-2.338,2.338-2.338
	c1.287,0,2.335,1.047,2.335,2.338c0,1.287-1.048,2.33-2.335,2.33C93.355,58.776,92.308,57.733,92.308,56.446 M98.917,66.226
	c0-1.287,1.052-2.338,2.339-2.338c1.286,0,2.334,1.051,2.334,2.338s-1.048,2.334-2.334,2.334
	C99.969,68.56,98.917,67.513,98.917,66.226 M104.998,76.536c0-0.108,0.012-0.219,0.025-0.326c0.042-0.071,0.064-0.154,0.064-0.244
	c0-0.016-0.004-0.029-0.004-0.041c0.271-0.991,1.179-1.723,2.252-1.723c1.287,0,2.338,1.047,2.338,2.334s-1.051,2.338-2.338,2.338
	S104.998,77.823,104.998,76.536 M86.273,33.2c0.03-0.063,0.045-0.135,0.045-0.21c0-0.105-0.033-0.203-0.09-0.289
	c0.021-1.269,1.059-2.297,2.338-2.297c1.288,0,2.336,1.047,2.336,2.334s-1.048,2.338-2.336,2.338
	C87.433,35.076,86.488,34.265,86.273,33.2 M86.228,47.228c0.057-0.082,0.09-0.184,0.09-0.289c0-0.074-0.015-0.143-0.045-0.205
	c0.215-1.069,1.16-1.881,2.293-1.881c1.288,0,2.336,1.051,2.336,2.338s-1.048,2.338-2.336,2.338
	C87.287,49.528,86.251,48.501,86.228,47.228"/>
</svg>
