<?xml version="1.0" encoding="utf-8"?>
<!-- Generator: Adobe Illustrator 15.1.0, SVG Export Plug-In . SVG Version: 6.00 Build 0)  -->
<!DOCTYPE svg PUBLIC "-//W3C//DTD SVG 1.1//EN" "http://www.w3.org/Graphics/SVG/1.1/DTD/svg11.dtd">
<svg version="1.1" id="Layer_1" xmlns="http://www.w3.org/2000/svg" xmlns:xlink="http://www.w3.org/1999/xlink" x="0px" y="0px"
	 width="80px" height="80px" viewBox="0 0 80 80" enable-background="new 0 0 80 80" xml:space="preserve">
	 <circle class = "innerCircle" cx = "50%" cy = "50%" r = "25%" fill = "#1dd2d4">
 		<animate attributeType="SVG" attributeName="r" begin="0s" dur="2.5s" repeatCount="indefinite" from="15%" to="25%"/>
 		<animate attributeType="CSS" attributeName="opacity" begin="0s"  dur="2.5s" repeatCount="indefinite" from="1" to="0"/>
 	</circle>
 	<circle class = "innerCircle" cx = "50%" cy = "50%" r = "25%" fill = "#1dd2d4">
 		<animate attributeType="SVG" attributeName="r" begin="0s" dur="2.5s" repeatCount="indefinite" from="20%" to="40%"/>
 		<animate attributeType="CSS" attributeName="opacity" begin="0s"  dur="2.5s" repeatCount="indefinite" from="1" to="0"/>
 	</circle>
 	<circle class = "innerCircle" cx = "50%" cy = "50%" r = "25%" fill = "#1dd2d4">
 		<animate attributeType="SVG" attributeName="r" begin="0s" dur="2.5s" repeatCount="indefinite" from="30%" to="50%"/>
 		<animate attributeType="CSS" attributeName="opacity" begin="0s"  dur="2.5s" repeatCount="indefinite" from="1" to="0"/>
 	</circle>
	<g>
		<path transform="translate(32,34)" fill="#FFFFFF" d="M10.281,14.059c-0.447,0.08-0.596-0.194-0.596-0.424c0-0.287,0-1.235,0-2.415c0-0.823-0.274-1.349-0.596-1.624
			c1.957-0.219,4.017-0.963,4.017-4.337c0-0.961-0.343-1.751-0.904-2.357c0.093-0.229,0.39-1.122-0.091-2.334
			C11.378,0.337,9.697,1.47,9.697,1.47C8.999,1.276,8.244,1.173,7.5,1.173c-0.744,0-1.5,0.103-2.197,0.297
			c0,0-1.682-1.133-2.425-0.903c-0.47,1.212-0.172,2.105-0.081,2.334C2.236,3.507,1.893,4.297,1.893,5.258
			c0,3.365,2.048,4.119,4.006,4.337c-0.252,0.229-0.48,0.605-0.561,1.18c-0.504,0.227-1.786,0.617-2.553-0.734
			c-0.48-0.834-1.35-0.904-1.35-0.904c-0.858-0.01-0.058,0.539-0.058,0.539c0.572,0.263,0.973,1.281,0.973,1.281
			c0.515,1.567,2.964,1.042,2.964,1.042c0,0.731,0.012,1.429,0.012,1.636c0,0.229-0.161,0.504-0.607,0.424
			c-3.49-1.168-6.008-4.463-6.008-8.342c0-4.853,3.937-8.789,8.789-8.789c4.852,0,8.788,3.936,8.788,8.789
			C16.288,9.596,13.771,12.891,10.281,14.059z"/>
	</g>
</svg>
