<?xml version="1.0" encoding="utf-8"?>
<!-- Generator: Adobe Illustrator 15.1.0, SVG Export Plug-In . SVG Version: 6.00 Build 0)  -->
<!DOCTYPE svg PUBLIC "-//W3C//DTD SVG 1.1//EN" "http://www.w3.org/Graphics/SVG/1.1/DTD/svg11.dtd">
<svg version="1.1" id="Layer_1" xmlns="http://www.w3.org/2000/svg" xmlns:xlink="http://www.w3.org/1999/xlink" x="0px" y="0px"
	 width="100px" height="100px" viewBox="0 0 100 100" enable-background="new 0 0 100 100" xml:space="preserve">
<path opacity="0.3" fill="#FFFFFF" d="M49.333,52.401l-1.761-3.044l3.049-1.759l1.761,3.047L49.333,52.401z M49.047,49.752
	l0.68,1.176l1.178-0.679l-0.68-1.177L49.047,49.752z"/>
<path opacity="0.55" fill="#FFFFFF" d="M51.13,53.673h-0.46l-4.452-2.568l0.156-0.537l2.55-4.412l0.455,0.229l4.472,2.578
	L51.13,53.673z M47.577,50.643l3.043,1.756l1.756-3.04l-3.042-1.755L47.577,50.643z"/>
<path opacity="0.35" fill="#FFFFFF" d="M53.27,54.591h-0.457l-7.554-1.324l0.141-0.562l1.317-7.467l0.593,0.198l7.261,1.273v0.453
	L53.27,54.591z M46.548,52.398l5.831,1.029l1.028-5.828l-5.832-1.026L46.548,52.398z"/>
<path opacity="0.4" fill="#FFFFFF" d="M54.838,54.856h-9.723v-9.713h9.723V54.856z M46.194,53.778h7.565v-7.556h-7.565V53.778z"/>
<path opacity="0.45" fill="#FFFFFF" d="M45.224,56.798l-0.104-0.521l-1.948-11.037l11.496-2.026l0.147,0.442l1.97,11.112
	l-0.537,0.09L45.224,56.798z M44.421,46.114l1.665,9.436l9.447-1.663l-1.667-9.437L44.421,46.114z"/>
<path opacity="0.5" fill="#FFFFFF" d="M45.68,59.14l-0.161-0.564L40.863,45.8l0.43-0.215l12.956-4.716l0.175,0.526l4.685,12.854
	l-0.501,0.188L45.68,59.14z M42.226,46.389l4.136,11.354l11.364-4.134L53.59,42.257L42.226,46.389z"/>
<path opacity="0.55" fill="#FFFFFF" d="M46.803,61.834l-8.671-15.005l15.018-8.663l8.671,15.005L46.803,61.834z M39.607,47.224
	l7.591,13.137l13.149-7.585l-7.591-13.137L39.607,47.224z"/>
<path opacity="0.6" fill="#FFFFFF" d="M48.682,64.884l-0.354-0.405l-13.252-15.78l16.202-13.584l0.347,0.405l13.248,15.775
	l-0.397,0.349L48.682,64.884z M36.596,48.831l12.21,14.54L63.359,51.17L51.148,36.63L36.596,48.831z"/>
<path opacity="0.65" fill="#FFFFFF" d="M51.559,68.22l-0.425-0.382L31.766,51.602l0.329-0.412l16.297-19.406l0.415,0.369
	l19.38,16.247l-0.329,0.412L51.559,68.22z M33.276,51.46l18.161,15.226l15.238-18.145L48.514,33.315L33.276,51.46z"/>
<path opacity="0.73" fill="#FFFFFF" d="M55.791,71.593l-0.47-0.235L28.355,55.804l0.246-0.461l15.57-26.946l0.46,0.246
	l27.052,15.604l-0.376,0.488L55.791,71.593z M29.813,55.398L55.38,70.147l14.76-25.546L44.574,29.854L29.813,55.398z"/>
<path opacity="0.8" fill="#FFFFFF" d="M61.588,74.879l-0.542-0.195L25.059,61.597l0.212-0.535l13.085-35.921l0.493,0.155
	l36.064,13.115l-0.234,0.529L61.588,74.879z M26.458,60.957l34.486,12.541l12.549-34.455L39.009,26.501L26.458,60.957z"/>
<path opacity="0.9" fill="#FFFFFF" d="M69.33,77.617L22.469,69.36v-0.718l8.159-46.281l0.548,0.119l46.44,8.182l-0.093,0.531
	L69.33,77.617z M23.588,68.462l44.867,7.905l7.912-44.829l-44.869-7.904L23.588,68.462z"/>
</svg>
