<?xml version="1.0" encoding="utf-8"?>
<!-- Generator: Adobe Illustrator 16.0.0, SVG Export Plug-In . SVG Version: 6.00 Build 0)  -->
<!DOCTYPE svg PUBLIC "-//W3C//DTD SVG 1.1//EN" "http://www.w3.org/Graphics/SVG/1.1/DTD/svg11.dtd">
<svg version="1.1" id="Layer_1" xmlns="http://www.w3.org/2000/svg" xmlns:xlink="http://www.w3.org/1999/xlink" x="0px" y="0px"
	 width="16px" height="16px" viewBox="0 0 16 16" enable-background="new 0 0 16 16" xml:space="preserve">
<g>
	<path fill="#FFFFFF" d="M14.029,8.531c-0.004,0.102-0.041,0.191-0.111,0.27c-0.07,0.07-0.156,0.105-0.258,0.105
		c-0.109,0-0.199-0.039-0.27-0.117l-0.504-0.527v5.613c0,0.102-0.037,0.189-0.111,0.264s-0.162,0.111-0.264,0.111H9.887
		c-0.102,0-0.189-0.037-0.264-0.111s-0.111-0.162-0.111-0.264v-3.75H6.523l-0.012,3.75c0,0.023-0.004,0.051-0.012,0.082
		s-0.018,0.059-0.029,0.082s-0.025,0.045-0.041,0.064s-0.035,0.039-0.059,0.059s-0.047,0.035-0.07,0.047s-0.049,0.021-0.076,0.029
		S6.168,14.25,6.137,14.25H3.523c-0.109,0-0.199-0.037-0.27-0.111s-0.105-0.162-0.105-0.264V8.262L2.633,8.789
		C2.602,8.82,2.562,8.846,2.516,8.865S2.422,8.896,2.375,8.9S2.281,8.896,2.234,8.877s-0.09-0.045-0.129-0.076
		c-0.047-0.047-0.08-0.104-0.1-0.17S1.984,8.5,2,8.438s0.047-0.121,0.094-0.176l5.66-5.895C7.832,2.289,7.922,2.25,8.023,2.25
		c0.055,0,0.105,0.01,0.152,0.029s0.086,0.049,0.117,0.088l5.637,5.895C14,8.34,14.033,8.43,14.029,8.531z M12.148,7.488
		L8.023,3.176L3.887,7.488C3.895,7.52,3.898,7.551,3.898,7.582V13.5h1.863l0.012-3.75c0-0.102,0.037-0.189,0.111-0.264
		s0.162-0.111,0.264-0.111h3.738c0.102,0,0.189,0.037,0.264,0.111s0.111,0.162,0.111,0.264v3.75h1.875V7.582
		C12.137,7.551,12.141,7.52,12.148,7.488z"/>
</g>
</svg>
