<?xml version="1.0" encoding="utf-8"?>
<!-- Generator: Adobe Illustrator 15.1.0, SVG Export Plug-In . SVG Version: 6.00 Build 0)  -->
<!DOCTYPE svg PUBLIC "-//W3C//DTD SVG 1.1//EN" "http://www.w3.org/Graphics/SVG/1.1/DTD/svg11.dtd">
<svg version="1.1" id="Layer_1" xmlns="http://www.w3.org/2000/svg" xmlns:xlink="http://www.w3.org/1999/xlink" x="0px" y="0px"
	 width="26px" height="26px" viewBox="-3 -3 26 26" enable-background="new -3 -3 26 26" xml:space="preserve">
<g>
	<g>
		<path fill="#FFFFFF" d="M8.089,8.323c-0.615,0-1.168-0.341-1.445-0.89c-0.4-0.796-0.079-1.77,0.717-2.171
			c0.224-0.113,0.476-0.173,0.726-0.173c0.615,0,1.167,0.34,1.444,0.888c0.401,0.796,0.08,1.77-0.715,2.171
			C8.59,8.261,8.339,8.323,8.089,8.323 M6.192,11.625c-0.031,0-0.062-0.001-0.093-0.002c-0.889-0.051-1.573-0.815-1.521-1.705
			c0.05-0.886,0.809-1.575,1.706-1.522c0.89,0.049,1.572,0.816,1.521,1.706C7.755,10.957,7.047,11.625,6.192,11.625 M8.102,14.92
			c-0.314,0-0.621-0.09-0.885-0.265c-0.36-0.236-0.607-0.6-0.696-1.022c-0.088-0.422-0.006-0.854,0.229-1.215
			c0.3-0.458,0.807-0.732,1.354-0.732c0.315,0,0.621,0.092,0.885,0.266c0.361,0.236,0.607,0.601,0.697,1.023
			c0.088,0.422,0.006,0.854-0.232,1.216C9.155,14.646,8.649,14.92,8.102,14.92 M11.913,14.911c-0.615,0-1.168-0.341-1.444-0.888
			c-0.194-0.387-0.227-0.822-0.091-1.234c0.134-0.41,0.422-0.741,0.808-0.938c0.224-0.114,0.476-0.174,0.727-0.174
			c0.613,0,1.169,0.342,1.441,0.892c0.403,0.793,0.082,1.769-0.715,2.17C12.415,14.854,12.163,14.911,11.913,14.911 M13.812,11.608
			c-0.031,0-0.063,0-0.096-0.002c-0.887-0.051-1.572-0.817-1.52-1.706c0.05-0.886,0.812-1.574,1.703-1.522
			c0.433,0.025,0.828,0.215,1.114,0.537c0.288,0.322,0.435,0.737,0.41,1.168C15.375,10.94,14.667,11.608,13.812,11.608
			 M11.896,8.313c-0.315,0-0.623-0.09-0.886-0.265c-0.746-0.49-0.954-1.492-0.465-2.238c0.301-0.457,0.807-0.729,1.354-0.729
			c0.313,0,0.621,0.092,0.884,0.264c0.745,0.487,0.953,1.491,0.466,2.238C12.95,8.04,12.446,8.313,11.896,8.313 M6.471,2.313
			c0.203,0.398,0.042,0.885-0.357,1.085C5.716,3.6,5.229,3.438,5.029,3.04C4.828,2.643,4.99,2.156,5.387,1.956
			C5.785,1.757,6.271,1.916,6.471,2.313 M1.58,9.213c0.446,0.025,0.786,0.406,0.76,0.851c-0.025,0.446-0.406,0.786-0.853,0.762
			c-0.445-0.025-0.786-0.408-0.76-0.853C0.753,9.528,1.135,9.188,1.58,9.213 M5.107,16.897c0.245-0.371,0.745-0.477,1.118-0.229
			c0.374,0.243,0.478,0.744,0.232,1.117c-0.244,0.374-0.746,0.479-1.118,0.233C4.967,17.773,4.864,17.272,5.107,16.897
			 M13.529,17.687c-0.201-0.396-0.04-0.884,0.356-1.083c0.398-0.203,0.885-0.041,1.084,0.356c0.204,0.396,0.043,0.885-0.354,1.085
			C14.215,18.245,13.729,18.086,13.529,17.687 M18.423,10.789c-0.447-0.026-0.786-0.408-0.763-0.854
			c0.025-0.445,0.407-0.786,0.852-0.76c0.446,0.026,0.785,0.406,0.761,0.853C19.249,10.473,18.865,10.813,18.423,10.789
			 M14.894,3.101c-0.244,0.374-0.745,0.478-1.12,0.233c-0.371-0.245-0.476-0.746-0.231-1.118c0.245-0.375,0.746-0.478,1.117-0.233
			C15.034,2.228,15.138,2.728,14.894,3.101 M4.705-0.164C4.836,0.095,4.731,0.41,4.473,0.538c-0.257,0.131-0.57,0.026-0.701-0.231
			C3.643,0.049,3.746-0.265,4.003-0.396C4.261-0.525,4.575-0.421,4.705-0.164 M-1.449,9.504c0.287,0.016,0.508,0.264,0.492,0.552
			c-0.016,0.288-0.262,0.51-0.551,0.491C-1.797,10.532-2.018,10.284-2,9.996C-1.983,9.708-1.738,9.487-1.449,9.504 M3.845,19.668
			c0.158-0.242,0.482-0.308,0.725-0.149c0.24,0.158,0.307,0.48,0.149,0.723c-0.157,0.241-0.481,0.31-0.724,0.151
			C3.754,20.233,3.688,19.909,3.845,19.668 M15.295,20.165c-0.131-0.26-0.026-0.573,0.231-0.701c0.258-0.13,0.573-0.026,0.703,0.229
			c0.128,0.257,0.025,0.573-0.232,0.702C15.74,20.524,15.427,20.423,15.295,20.165 M21.448,10.498
			c-0.287-0.017-0.509-0.264-0.491-0.552c0.017-0.289,0.263-0.508,0.552-0.493c0.288,0.016,0.509,0.263,0.491,0.552
			C21.984,10.292,21.737,10.513,21.448,10.498 M16.155,0.333c-0.16,0.241-0.482,0.31-0.724,0.15
			c-0.241-0.159-0.31-0.482-0.151-0.725c0.158-0.24,0.481-0.308,0.725-0.148C16.246-0.231,16.313,0.092,16.155,0.333 M4.864,5.957
			C5.303,6.243,5.425,6.833,5.138,7.27C4.849,7.71,4.261,7.832,3.821,7.545C3.382,7.256,3.261,6.668,3.548,6.23
			C3.837,5.791,4.424,5.668,4.864,5.957 M3.929,12.427c0.467-0.236,1.039-0.047,1.276,0.422c0.236,0.469,0.048,1.039-0.422,1.275
			c-0.468,0.238-1.039,0.048-1.276-0.421C3.272,13.234,3.461,12.662,3.929,12.427 M8.998,16.471c0.03-0.525,0.479-0.925,1.002-0.895
			c0.524,0.029,0.926,0.48,0.895,1.003c-0.03,0.524-0.479,0.925-1.003,0.895C9.369,17.444,8.967,16.997,8.998,16.471 M15.136,14.045
			c-0.437-0.287-0.562-0.877-0.273-1.315c0.288-0.438,0.878-0.562,1.314-0.274c0.439,0.287,0.562,0.878,0.275,1.314
			C16.165,14.21,15.576,14.332,15.136,14.045 M16.072,7.574c-0.471,0.236-1.041,0.048-1.277-0.421
			c-0.236-0.467-0.048-1.04,0.422-1.275c0.471-0.237,1.04-0.049,1.278,0.42C16.728,6.767,16.54,7.338,16.072,7.574 M10.935,3.53
			c-0.029,0.522-0.479,0.923-1.004,0.893c-0.524-0.03-0.923-0.478-0.893-1.001c0.03-0.525,0.479-0.925,1.002-0.895
			C10.563,2.556,10.963,3.005,10.935,3.53 M1.325,4.252c0.309,0.201,0.393,0.614,0.193,0.92C1.315,5.479,0.904,5.565,0.596,5.364
			C0.289,5.163,0.203,4.75,0.404,4.444C0.606,4.137,1.018,4.05,1.325,4.252 M0.685,14.639c0.328-0.166,0.729-0.033,0.894,0.293
			c0.165,0.329,0.031,0.729-0.296,0.893c-0.328,0.167-0.728,0.035-0.892-0.293C0.225,15.205,0.356,14.803,0.685,14.639
			 M9.292,20.385c0.02-0.364,0.334-0.645,0.702-0.625c0.367,0.021,0.646,0.336,0.625,0.701c-0.021,0.369-0.334,0.647-0.701,0.627
			C9.55,21.067,9.271,20.755,9.292,20.385 M18.676,15.748c-0.308-0.2-0.393-0.614-0.192-0.922c0.2-0.307,0.614-0.392,0.92-0.188
			c0.309,0.201,0.393,0.612,0.191,0.92C19.394,15.864,18.982,15.951,18.676,15.748 M19.317,5.363
			c-0.33,0.165-0.729,0.033-0.893-0.295c-0.166-0.327-0.034-0.728,0.294-0.893c0.327-0.165,0.728-0.034,0.891,0.295
			C19.773,4.797,19.643,5.197,19.317,5.363 M10.642-0.386C10.619-0.019,10.307,0.262,9.94,0.24C9.573,0.219,9.292-0.095,9.313-0.46
			c0.022-0.368,0.335-0.649,0.702-0.628C10.382-1.067,10.662-0.753,10.642-0.386"/>
	</g>
</g>
</svg>
