<?xml version="1.0" encoding="utf-8"?>
<!-- Generator: Adobe Illustrator 15.1.0, SVG Export Plug-In . SVG Version: 6.00 Build 0)  -->
<!DOCTYPE svg PUBLIC "-//W3C//DTD SVG 1.1//EN" "http://www.w3.org/Graphics/SVG/1.1/DTD/svg11.dtd">
<svg version="1.1" id="Layer_1" xmlns="http://www.w3.org/2000/svg" xmlns:xlink="http://www.w3.org/1999/xlink" x="0px" y="0px"
	 width="26px" height="26px" viewBox="0 0 26 26" enable-background="new 0 0 26 26" xml:space="preserve">
<path id="D" fill="#FFFFFF" d="M23.604,8.724c-0.026-0.36-0.128-0.72-0.312-1.033c-0.163-0.325-0.453-0.58-0.791-0.708
	c-0.347-0.172-0.729-0.255-1.112-0.242H6.97L5.937,9.836h13.065l-2.065,6.33H3.875l-1.033,3.095h14.489
	c0.434-0.013,0.861-0.096,1.266-0.245c0.405-0.229,0.867-0.462,1.263-0.787c0.382-0.304,0.729-0.65,1.032-1.033
	c0.255-0.382,0.462-0.774,0.638-1.192l1.912-6.018C23.613,9.594,23.674,9.15,23.604,8.724L23.604,8.724z"/>
<path id="_-" fill="#FFFFFF" d="M11.084,11.563H3.398l-1.031,2.862h7.768L11.084,11.563z"/>
</svg>
