<?xml version="1.0" encoding="utf-8"?>
<!-- Generator: Adobe Illustrator 15.1.0, SVG Export Plug-In . SVG Version: 6.00 Build 0)  -->
<!DOCTYPE svg PUBLIC "-//W3C//DTD SVG 1.1//EN" "http://www.w3.org/Graphics/SVG/1.1/DTD/svg11.dtd">
<svg version="1.1" id="Layer_1" xmlns="http://www.w3.org/2000/svg" xmlns:xlink="http://www.w3.org/1999/xlink" x="0px" y="0px"
	 width="27.219px" height="20.625px" viewBox="0 0 27.219 20.625" enable-background="new 0 0 27.219 20.625" xml:space="preserve">
<path fill="#FFFFFF" d="M5.169,0.8C5.127,0.445,4.819,0.167,4.453,0.167c-0.396,0-0.719,0.321-0.719,0.714
	c0,0.396,0.318,0.716,0.714,0.716c0.346,0,0.636-0.247,0.7-0.574c5.225,0.045,9.497,3.135,9.834,7.022
	c-0.273-0.535-0.803-1.414-1.665-2.303C12.075,4.459,9.877,2.93,6.47,2.93c-0.013,0-0.026,0.002-0.038,0.008
	c-0.056-0.34-0.35-0.597-0.705-0.597c-0.394,0-0.715,0.32-0.715,0.714s0.321,0.716,0.715,0.716c0.363,0,0.664-0.273,0.708-0.624
	C6.447,3.151,6.458,3.153,6.47,3.153c3.324,0,5.468,1.489,6.681,2.739c0.779,0.802,1.284,1.611,1.57,2.141
	c-0.372-0.334-0.946-0.811-1.668-1.284C11.841,5.954,9.952,5.01,7.826,5.007C7.773,4.666,7.478,4.403,7.12,4.403
	c-0.395,0-0.715,0.318-0.715,0.714c0,0.395,0.32,0.714,0.715,0.714c0.356,0,0.651-0.261,0.706-0.601
	C11,5.233,13.689,7.393,14.654,8.273c-1.069-0.383-3.626-1.227-5.54-1.262c-0.029-0.37-0.337-0.659-0.712-0.659
	c-0.395,0-0.716,0.321-0.716,0.714c0,0.395,0.321,0.717,0.716,0.717c0.337,0,0.62-0.256,0.694-0.571
	c1.892,0.032,4.441,0.888,5.495,1.236h-2.893h-0.805c-0.042-0.348-0.344-0.611-0.71-0.611c-0.394,0-0.715,0.33-0.715,0.725
	c0,0.394,0.321,0.705,0.715,0.705c0.346,0,0.636-0.239,0.702-0.587h0.812h2.839c-1.081,0.462-3.58,1.221-5.441,1.252
	C9.022,9.617,8.739,9.391,8.402,9.391c-0.395,0-0.716,0.325-0.716,0.718c0,0.395,0.321,0.718,0.716,0.718
	c0.375,0,0.683-0.291,0.712-0.659c1.914-0.036,4.471-0.879,5.54-1.262c-0.965,0.88-3.653,3.039-6.828,3.042
	c-0.055-0.339-0.35-0.601-0.706-0.601c-0.395,0-0.715,0.319-0.715,0.715s0.32,0.715,0.715,0.715c0.357,0,0.652-0.264,0.707-0.604
	c2.125-0.002,4.015-0.948,5.227-1.741c0.736-0.482,1.318-0.968,1.689-1.304c-0.281,0.528-0.79,1.353-1.584,2.172
	c-1.215,1.251-3.359,2.744-6.688,2.744c-0.011,0-0.021,0.003-0.032,0.006c-0.036-0.358-0.341-0.641-0.711-0.641
	c-0.394,0-0.715,0.319-0.715,0.715s0.321,0.715,0.715,0.715c0.35,0,0.64-0.249,0.702-0.579c0.013,0.006,0.027,0.008,0.042,0.008
	c3.407,0,5.604-1.528,6.847-2.812c0.848-0.873,1.373-1.739,1.651-2.275c-0.428,3.829-4.672,6.85-9.847,6.884
	c-0.098-0.279-0.363-0.482-0.676-0.482c-0.395,0-0.716,0.32-0.716,0.716c0,0.394,0.321,0.716,0.716,0.716
	c0.396,0,0.716-0.322,0.716-0.716c0-0.003,0.015-0.007,0.015-0.011c5.525-0.053,9.962-3.458,10.078-7.656V8.544
	C15.254,4.305,10.733,0.852,5.169,0.8 M4.932,0.96c-0.038,0.234-0.24,0.414-0.485,0.414c-0.271,0-0.492-0.221-0.492-0.493
	c0-0.27,0.222-0.492,0.492-0.492c0.262,0,0.475,0.206,0.49,0.462C4.926,0.867,4.92,0.888,4.92,0.911
	C4.919,0.929,4.924,0.945,4.932,0.96 M5.727,3.548c-0.271,0-0.492-0.22-0.492-0.493c0-0.271,0.222-0.493,0.492-0.493
	c0.272,0,0.494,0.221,0.494,0.493C6.221,3.328,5.999,3.548,5.727,3.548 M7.12,5.608c-0.271,0-0.492-0.22-0.492-0.491
	S6.849,4.625,7.12,4.625c0.272,0,0.492,0.221,0.492,0.493S7.393,5.608,7.12,5.608 M8.884,7.164C8.839,7.389,8.64,7.559,8.402,7.559
	c-0.271,0-0.492-0.221-0.492-0.493c0-0.271,0.221-0.491,0.492-0.491c0.269,0,0.488,0.216,0.491,0.484
	c-0.011,0.018-0.018,0.04-0.018,0.062C8.875,7.137,8.878,7.151,8.884,7.164 M10.185,9.064c-0.271,0-0.491-0.221-0.491-0.493
	s0.221-0.492,0.491-0.492c0.272,0,0.493,0.221,0.493,0.492S10.457,9.064,10.185,9.064 M8.402,10.605
	c-0.271,0-0.492-0.221-0.492-0.492S8.13,9.621,8.402,9.621c0.238,0,0.438,0.17,0.482,0.396c-0.006,0.013-0.009,0.026-0.009,0.044
	c0,0.021,0.007,0.042,0.019,0.06C8.89,10.39,8.67,10.605,8.402,10.605 M7.12,12.555c-0.271,0-0.492-0.22-0.492-0.49
	c0-0.272,0.221-0.492,0.492-0.492c0.272,0,0.492,0.22,0.492,0.492C7.613,12.335,7.393,12.555,7.12,12.555 M5.727,14.617
	c-0.271,0-0.492-0.221-0.492-0.492s0.222-0.492,0.492-0.492c0.272,0,0.494,0.221,0.494,0.492S5.999,14.617,5.727,14.617
	 M4.446,16.791c-0.271,0-0.492-0.223-0.492-0.493s0.222-0.491,0.492-0.491c0.227,0,0.417,0.153,0.475,0.361
	c0,0.004-0.001,0.007-0.001,0.012c0,0.016,0.005,0.033,0.014,0.051c0.001,0.021,0.004,0.045,0.004,0.067
	C4.938,16.568,4.717,16.791,4.446,16.791"/>
<path fill="#FFFFFF" d="M15.601,8.631c0.116,4.198,4.524,7.604,10.049,7.656c0,0.004-0.007,0.008-0.007,0.011
	c0,0.394,0.317,0.716,0.713,0.716c0.395,0,0.714-0.322,0.714-0.716c0-0.396-0.321-0.716-0.716-0.716
	c-0.312,0-0.58,0.203-0.677,0.482c-5.173-0.034-9.42-3.057-9.847-6.884c0.278,0.536,0.804,1.402,1.648,2.275
	c1.244,1.284,3.441,2.812,6.85,2.812c0.014,0,0.027-0.002,0.039-0.008c0.063,0.33,0.354,0.579,0.704,0.579
	c0.394,0,0.715-0.319,0.715-0.715s-0.321-0.715-0.715-0.715c-0.37,0-0.677,0.28-0.713,0.641c-0.01-0.003-0.021-0.006-0.03-0.006
	c-3.328,0-5.476-1.492-6.688-2.744c-0.795-0.819-1.304-1.644-1.584-2.172c0.371,0.336,0.953,0.821,1.688,1.304
	c1.212,0.792,3.102,1.739,5.228,1.741c0.054,0.343,0.348,0.604,0.706,0.604c0.396,0,0.714-0.319,0.714-0.715
	s-0.318-0.715-0.714-0.715c-0.354,0-0.651,0.262-0.706,0.601c-3.173-0.003-5.863-2.163-6.828-3.043
	c1.069,0.383,3.626,1.227,5.54,1.262c0.029,0.368,0.337,0.657,0.712,0.657c0.395,0,0.715-0.324,0.715-0.719s-0.32-0.723-0.715-0.723
	c-0.337,0-0.62,0.234-0.694,0.549c-1.86-0.031-4.359-0.79-5.441-1.252h2.84h0.812c0.063,0.348,0.354,0.583,0.7,0.583
	c0.396,0,0.717-0.308,0.717-0.701c0-0.395-0.321-0.722-0.717-0.722c-0.364,0-0.669,0.261-0.71,0.608H19.1h-2.892
	c1.052-0.348,3.603-1.204,5.493-1.236c0.074,0.314,0.357,0.577,0.694,0.577c0.395,0,0.715-0.325,0.715-0.718
	c0-0.395-0.32-0.718-0.715-0.718c-0.375,0-0.683,0.29-0.712,0.659c-1.914,0.035-4.471,0.878-5.54,1.262
	c0.965-0.881,3.655-3.04,6.828-3.043c0.055,0.339,0.352,0.601,0.706,0.601c0.396,0,0.714-0.32,0.714-0.714
	c0-0.396-0.318-0.714-0.714-0.714c-0.358,0-0.652,0.262-0.706,0.604c-2.126,0.003-4.016,0.948-5.228,1.742
	c-0.724,0.473-1.298,0.949-1.668,1.284c0.284-0.53,0.79-1.339,1.569-2.141c1.213-1.25,3.356-2.739,6.682-2.739
	c0.012,0,0.022-0.002,0.034-0.005c0.046,0.351,0.346,0.624,0.709,0.624c0.394,0,0.715-0.321,0.715-0.716s-0.321-0.714-0.715-0.714
	c-0.354,0-0.648,0.259-0.704,0.597c-0.015-0.006-0.026-0.008-0.039-0.008c-3.407,0-5.604,1.529-6.85,2.812
	c-0.859,0.889-1.388,1.769-1.663,2.303c0.338-3.888,4.61-6.978,9.835-7.022c0.064,0.328,0.354,0.574,0.701,0.574
	c0.396,0,0.716-0.32,0.716-0.716c0-0.393-0.319-0.714-0.714-0.714c-0.367,0-0.657,0.277-0.697,0.633
	c-5.563,0.051-10.057,3.505-10.057,7.744v0.086H15.601z M25.866,0.96c0.009-0.015,0.014-0.031,0.014-0.05
	c0-0.021-0.007-0.041-0.02-0.059c0.017-0.256,0.229-0.462,0.49-0.462c0.272,0,0.493,0.222,0.493,0.492
	c0,0.272-0.221,0.493-0.493,0.493C26.107,1.374,25.905,1.194,25.866,0.96 M24.579,3.055c0-0.271,0.221-0.493,0.492-0.493
	c0.271,0,0.491,0.221,0.491,0.493s-0.222,0.493-0.491,0.493C24.8,3.548,24.579,3.328,24.579,3.055 M23.186,5.117
	c0-0.273,0.223-0.493,0.493-0.493c0.271,0,0.491,0.22,0.491,0.493c0,0.271-0.221,0.491-0.491,0.491
	C23.407,5.608,23.186,5.389,23.186,5.117 M20.12,8.571c0-0.271,0.222-0.492,0.492-0.492c0.272,0,0.493,0.221,0.493,0.492
	s-0.221,0.493-0.493,0.493C20.342,9.064,20.12,8.843,20.12,8.571 M23.186,12.062c0-0.271,0.223-0.492,0.493-0.492
	c0.271,0,0.491,0.221,0.491,0.492s-0.221,0.492-0.491,0.492C23.407,12.555,23.186,12.335,23.186,12.062 M24.579,14.125
	c0-0.271,0.221-0.493,0.492-0.493c0.271,0,0.491,0.222,0.491,0.493s-0.222,0.492-0.491,0.492
	C24.8,14.617,24.579,14.396,24.579,14.125 M25.86,16.298c0-0.022,0.001-0.047,0.007-0.067c0.009-0.018,0.014-0.032,0.014-0.051
	c0-0.005-0.003-0.008-0.003-0.012c0.058-0.208,0.249-0.361,0.475-0.361c0.272,0,0.493,0.221,0.493,0.491s-0.221,0.493-0.493,0.493
	C26.081,16.791,25.86,16.568,25.86,16.298 M21.914,7.164c0.005-0.013,0.01-0.027,0.01-0.045c0-0.021-0.007-0.042-0.021-0.06
	c0.005-0.268,0.224-0.484,0.492-0.484c0.271,0,0.491,0.221,0.491,0.491c0,0.271-0.221,0.493-0.491,0.493
	C22.158,7.559,21.958,7.389,21.914,7.164 M21.904,10.12c0.014-0.017,0.021-0.039,0.021-0.06c0-0.018-0.005-0.031-0.01-0.044
	c0.044-0.226,0.244-0.396,0.481-0.396c0.271,0,0.491,0.221,0.491,0.493c0,0.271-0.221,0.492-0.491,0.492
	C22.127,10.605,21.908,10.39,21.904,10.12"/>
</svg>
