<?xml version="1.0" encoding="utf-8"?>
<!-- Generator: Adobe Illustrator 15.1.0, SVG Export Plug-In . SVG Version: 6.00 Build 0)  -->
<!DOCTYPE svg PUBLIC "-//W3C//DTD SVG 1.1//EN" "http://www.w3.org/Graphics/SVG/1.1/DTD/svg11.dtd">
<svg version="1.1" id="Layer_1" xmlns="http://www.w3.org/2000/svg" xmlns:xlink="http://www.w3.org/1999/xlink" x="0px" y="0px"
	 width="26px" height="26px" viewBox="0 0 26 26" enable-background="new 0 0 26 26" xml:space="preserve">
<g>
	<g>
		<path fill="#FFFFFF" d="M23.852,13.955l-2.062-1.43l1.224-2.193c0.133-0.238,0.165-0.516,0.09-0.779
			c-0.074-0.263-0.248-0.481-0.486-0.614l-2.931-1.634V5.992c0-0.565-0.459-1.024-1.023-1.024h-3.169l-2.766-1.543
			c-0.239-0.133-0.516-0.166-0.779-0.091c-0.263,0.075-0.482,0.248-0.616,0.487l-0.578,1.038L9.779,4.181
			C9.554,4.024,9.282,3.965,9.013,4.014C8.744,4.062,8.508,4.213,8.352,4.438l-0.368,0.53H7.339c-0.565,0-1.025,0.459-1.025,1.024
			v1.379l-4.421,6.365c-0.156,0.226-0.215,0.497-0.167,0.767s0.199,0.504,0.424,0.66l2.061,1.431l-1.222,2.192
			c-0.133,0.239-0.166,0.515-0.091,0.777c0.075,0.265,0.248,0.482,0.487,0.616l2.929,1.633v1.314c0,0.564,0.46,1.024,1.024,1.024
			h3.169l2.766,1.542c0.158,0.088,0.329,0.129,0.498,0.129c0.359,0,0.709-0.188,0.896-0.525l0.579-1.036l0.975,0.678
			c0.178,0.122,0.381,0.183,0.583,0.183c0.325,0,0.644-0.153,0.843-0.439l0.369-0.53h0.646c0.564,0,1.023-0.46,1.023-1.024v-1.379
			l4.423-6.367C24.43,14.918,24.314,14.278,23.852,13.955L23.852,13.955z M22.343,9.431c0.107,0.06,0.186,0.159,0.219,0.277
			c0.034,0.119,0.02,0.243-0.04,0.351l-1.195,2.144l-1.641-1.139V7.949L22.343,9.431z M11.824,4.095
			c0.06-0.108,0.159-0.186,0.278-0.22c0.118-0.034,0.243-0.02,0.351,0.041l1.886,1.052h-3.001L11.824,4.095z M8.814,4.758
			C8.885,4.657,8.99,4.589,9.112,4.566c0.121-0.021,0.244,0.005,0.345,0.076l0.468,0.325H8.669L8.814,4.758z M2.279,14.403
			c-0.021-0.122,0.005-0.244,0.076-0.346l3.959-5.7v9.014L2.47,14.7C2.369,14.63,2.3,14.525,2.279,14.403L2.279,14.403z
			 M3.658,19.688c-0.108-0.06-0.186-0.159-0.22-0.277c-0.034-0.118-0.019-0.244,0.041-0.352l1.196-2.144l1.639,1.14v3.114
			L3.658,19.688z M14.177,25.024c-0.124,0.222-0.406,0.302-0.629,0.179l-1.886-1.052h3.002L14.177,25.024z M17.188,24.36
			c-0.146,0.21-0.436,0.261-0.645,0.117l-0.469-0.326h1.258L17.188,24.36z M19.124,23.127c0,0.254-0.208,0.462-0.462,0.462H7.338
			c-0.254,0-0.461-0.208-0.461-0.462V5.992c0-0.255,0.208-0.463,0.461-0.463h11.324c0.254,0,0.462,0.208,0.462,0.463V23.127z
			 M23.646,15.06l-3.96,5.701v-9.013l3.845,2.669C23.739,14.562,23.791,14.852,23.646,15.06L23.646,15.06z M23.646,15.06"/>
	</g>
	<path fill="#FFFFFF" d="M15.519,12.29c-0.36-0.36-0.839-0.558-1.348-0.558c-0.43,0-0.837,0.141-1.171,0.402
		c-0.333-0.261-0.741-0.402-1.17-0.402c-0.51,0-0.988,0.197-1.348,0.558c-0.744,0.743-0.744,1.953,0,2.696l2.319,2.318
		c0.052,0.054,0.125,0.083,0.198,0.083c0.075,0,0.146-0.029,0.199-0.083l2.319-2.318C16.262,14.242,16.262,13.033,15.519,12.29
		L15.519,12.29z M15.121,14.588L13,16.709l-2.121-2.121c-0.524-0.524-0.524-1.377,0-1.9c0.254-0.254,0.591-0.394,0.951-0.394
		c0.358,0,0.696,0.14,0.949,0.393l0.021,0.021c0.053,0.053,0.125,0.083,0.199,0.083l0,0c0.075,0,0.146-0.03,0.199-0.083l0.021-0.021
		c0.254-0.254,0.591-0.394,0.951-0.394c0.358,0,0.696,0.14,0.949,0.394C15.645,13.211,15.645,14.063,15.121,14.588L15.121,14.588z
		 M15.121,14.588"/>
	<path fill="#FFFFFF" d="M10.473,7.942c0.197-0.197,0.305-0.458,0.305-0.737s-0.108-0.54-0.305-0.736
		c-0.197-0.197-0.458-0.305-0.737-0.305c-0.196,0-0.385,0.054-0.548,0.156C9.025,6.218,8.837,6.164,8.64,6.164
		c-0.278,0-0.54,0.108-0.736,0.305C7.707,6.666,7.598,6.927,7.598,7.206s0.108,0.54,0.306,0.737l1.085,1.086
		C9.042,9.081,9.113,9.11,9.188,9.11c0.074,0,0.146-0.029,0.198-0.082L10.473,7.942z M10.075,7.545L9.188,8.432L8.311,7.555
		l-0.01-0.01C8.21,7.454,8.16,7.334,8.16,7.206c0-0.127,0.05-0.248,0.141-0.339c0.09-0.09,0.211-0.141,0.339-0.141
		c0.129,0,0.249,0.05,0.339,0.14l0.01,0.01c0.052,0.053,0.124,0.083,0.199,0.083l0,0c0.074,0,0.146-0.03,0.198-0.083l0.011-0.01
		c0.09-0.09,0.211-0.141,0.339-0.141s0.249,0.05,0.339,0.141c0.091,0.091,0.141,0.211,0.141,0.339
		C10.215,7.334,10.166,7.455,10.075,7.545L10.075,7.545z M10.075,7.545"/>
	<path fill="#FFFFFF" d="M17.36,20.008c-0.196,0-0.385,0.054-0.548,0.154c-0.163-0.101-0.352-0.154-0.548-0.154
		c-0.278,0-0.54,0.108-0.736,0.306c-0.196,0.195-0.306,0.458-0.306,0.736c0,0.277,0.109,0.54,0.306,0.735l1.086,1.086
		c0.052,0.054,0.124,0.083,0.198,0.083s0.146-0.029,0.198-0.083l1.076-1.075l0.011-0.011c0.197-0.195,0.305-0.458,0.305-0.735
		c0-0.278-0.107-0.541-0.305-0.736C17.9,20.116,17.639,20.008,17.36,20.008L17.36,20.008z M17.7,21.389l-0.888,0.888l-0.877-0.877
		l-0.011-0.011c-0.09-0.091-0.141-0.211-0.141-0.339c0-0.127,0.051-0.249,0.141-0.339c0.091-0.091,0.211-0.141,0.34-0.141
		c0.128,0,0.248,0.05,0.338,0.14l0.011,0.01c0.052,0.054,0.124,0.083,0.199,0.083l0,0c0.074,0,0.146-0.029,0.198-0.083l0.011-0.009
		c0.091-0.091,0.211-0.141,0.339-0.141c0.129,0,0.249,0.05,0.34,0.141c0.09,0.09,0.14,0.212,0.14,0.339
		C17.84,21.178,17.79,21.298,17.7,21.389L17.7,21.389z M17.7,21.389"/>
</g>
</svg>
