<?xml version="1.0" encoding="utf-8"?>
<!-- Generator: Adobe Illustrator 15.1.0, SVG Export Plug-In . SVG Version: 6.00 Build 0)  -->
<!DOCTYPE svg PUBLIC "-//W3C//DTD SVG 1.1//EN" "http://www.w3.org/Graphics/SVG/1.1/DTD/svg11.dtd">
<svg version="1.1" id="Layer_1" xmlns="http://www.w3.org/2000/svg" xmlns:xlink="http://www.w3.org/1999/xlink" x="0px" y="0px"
	 width="26px" height="26px" viewBox="0 0 26 26" enable-background="new 0 0 26 26" xml:space="preserve">
<g>
	<path fill="#FFFFFF" stroke="#FFFFFF" stroke-width="0.25" stroke-miterlimit="10" d="M6.39,10.386h0.695
		c0.944,0,1.852,0.347,2.554,0.974c0.066,0.059,0.149,0.09,0.231,0.09c0.097,0,0.192-0.039,0.26-0.118
		c0.127-0.142,0.116-0.361-0.027-0.491c-0.829-0.742-1.901-1.15-3.018-1.15H6.39c-0.192,0-0.348,0.154-0.348,0.346
		C6.042,10.231,6.198,10.386,6.39,10.386L6.39,10.386z M6.39,10.386"/>
	<path fill="#FFFFFF" stroke="#FFFFFF" stroke-width="0.25" stroke-miterlimit="10" d="M15.155,7.05
		c-0.114,0.155-0.08,0.373,0.076,0.485l2.963,2.156h-2.758c-2.494,0-4.524,2.028-4.524,4.522c0,2.11-1.716,3.829-3.828,3.829H6.39
		c-0.192,0-0.348,0.154-0.348,0.348c0,0.191,0.156,0.346,0.348,0.346h0.695c2.494,0,4.524-2.027,4.524-4.522
		c0-2.11,1.716-3.827,3.827-3.827h2.758l-2.963,2.154c-0.154,0.112-0.19,0.332-0.076,0.486c0.067,0.094,0.173,0.143,0.281,0.143
		c0.072,0,0.143-0.022,0.204-0.066l4.215-3.065l-4.215-3.064C15.484,6.86,15.267,6.895,15.155,7.05L15.155,7.05z M15.155,7.05"/>
	<path fill="#FFFFFF" stroke="#FFFFFF" stroke-width="0.25" stroke-miterlimit="10" d="M15.155,15.401
		c-0.114,0.154-0.08,0.371,0.076,0.486l2.963,2.154h-2.758c-0.934,0-1.834-0.34-2.533-0.957c-0.143-0.127-0.364-0.113-0.491,0.029
		c-0.127,0.145-0.114,0.365,0.03,0.492c0.825,0.729,1.889,1.129,2.993,1.129h2.758l-2.963,2.154
		c-0.154,0.115-0.19,0.332-0.076,0.486c0.067,0.096,0.173,0.145,0.281,0.145c0.072,0,0.143-0.021,0.204-0.068l4.215-3.062
		l-4.215-3.064C15.484,15.21,15.267,15.245,15.155,15.401L15.155,15.401z M15.155,15.401"/>
	<path fill="#FFFFFF" stroke="#FFFFFF" stroke-width="0.25" stroke-miterlimit="10" d="M13,3.775
		c-5.755,0-10.438,4.682-10.438,10.438c0,5.757,4.683,10.438,10.438,10.438c5.756,0,10.438-4.682,10.438-10.438
		C23.438,8.458,18.757,3.775,13,3.775L13,3.775z M13,23.954c-5.372,0-9.741-4.369-9.741-9.741c0-5.372,4.369-9.741,9.741-9.741
		c5.373,0,9.742,4.369,9.742,9.741C22.742,19.585,18.373,23.954,13,23.954L13,23.954z M13,23.954"/>
</g>
</svg>
