<?xml version="1.0" encoding="utf-8"?>
<!-- Generator: Adobe Illustrator 15.1.0, SVG Export Plug-In . SVG Version: 6.00 Build 0)  -->
<!DOCTYPE svg PUBLIC "-//W3C//DTD SVG 1.1//EN" "http://www.w3.org/Graphics/SVG/1.1/DTD/svg11.dtd">
<svg version="1.1" id="Layer_1" xmlns="http://www.w3.org/2000/svg" xmlns:xlink="http://www.w3.org/1999/xlink" x="0px" y="0px"
	 width="26px" height="26px" viewBox="0 0 26 26" enable-background="new 0 0 26 26" xml:space="preserve">
<g>
	<path fill="#FFFFFF" stroke="#FFFFFF" stroke-width="0.25" stroke-miterlimit="10" d="M13,3.775
		c-5.755,0-10.438,4.682-10.438,10.438C2.562,19.97,7.245,24.65,13,24.65c5.756,0,10.438-4.682,10.438-10.438
		C23.438,8.458,18.757,3.775,13,3.775L13,3.775z M13,23.954c-5.372,0-9.741-4.369-9.741-9.741S7.628,4.472,13,4.472
		c5.373,0,9.742,4.369,9.742,9.741S18.373,23.954,13,23.954L13,23.954z"/>
</g>
<g>
	<path fill="#FFFFFF" d="M5.808,13.894l4.807-2.337v0.915L6.793,14.25v0.02l3.821,1.778v0.915l-4.807-2.337V13.894z"/>
	<path fill="#FFFFFF" d="M11.34,17.359l2.469-7.368h0.874l-2.479,7.368H11.34z"/>
	<path fill="#FFFFFF" d="M20.111,14.646l-4.816,2.317v-0.904l3.882-1.789v-0.02l-3.882-1.789v-0.904l4.816,2.316V14.646z"/>
</g>
</svg>
