<?xml version="1.0" encoding="utf-8"?>
<!-- Generator: Adobe Illustrator 15.1.0, SVG Export Plug-In . SVG Version: 6.00 Build 0)  -->
<!DOCTYPE svg PUBLIC "-//W3C//DTD SVG 1.1//EN" "http://www.w3.org/Graphics/SVG/1.1/DTD/svg11.dtd">
<svg version="1.1" id="Layer_1" xmlns="http://www.w3.org/2000/svg" xmlns:xlink="http://www.w3.org/1999/xlink" x="0px" y="0px"
	 width="26px" height="26px" viewBox="0 0 26 26" enable-background="new 0 0 26 26" xml:space="preserve">
<g id="Page-1">
	<g id="pack-2" transform="translate(-1226.000000, -316.000000)">
		<g id="pressure-copy-7" transform="translate(1226.000000, 316.000000)">
			<g id="p2p">
				<g id="Group-7" transform="translate(22.000000, 8.000000)">
					<path id="Rectangle-2-Copy" opacity="0.9" fill="#FFFFFF" enable-background="new    " d="M-0.959,14.59l-0.8-1.294V-1.288
						c0-1.091-0.895-1.975-1.998-1.975h-10.486c-1.104,0-1.998,0.884-1.998,1.975v14.811c0,1.093,0.894,1.977,1.998,1.977h5.285
						l-0.544,0.986h-4.741c-1.656,0-2.997-1.326-2.997-2.963V-1.288c0-1.636,1.341-2.962,2.997-2.962h10.486
						c1.655,0,2.997,1.327,2.997,2.962v14.811C-0.76,13.9-0.831,14.26-0.959,14.59z M-7.641,0.072h-6.614
						c-0.273,0-0.489-0.216-0.489-0.48c0-0.264,0.22-0.48,0.489-0.48h6.614c0.27,0,0.488,0.216,0.488,0.48
						C-7.152-0.145-7.371,0.072-7.641,0.072z M-8.923,1.741h-5.332c-0.273,0-0.489-0.216-0.489-0.48s0.22-0.48,0.489-0.48h5.332
						c0.269,0,0.488,0.216,0.488,0.48S-8.654,1.741-8.923,1.741z M-3.806,0.072h-1.278c-0.273,0-0.488-0.216-0.488-0.48
						c0-0.264,0.219-0.48,0.488-0.48h1.278c0.268,0,0.487,0.216,0.487,0.48C-3.318-0.145-3.538,0.072-3.806,0.072z M-7.641,7.972
						h-6.614c-0.273,0-0.489-0.216-0.489-0.48c0-0.263,0.22-0.479,0.489-0.479h6.614c0.27,0,0.488,0.217,0.488,0.479
						C-7.152,7.756-7.371,7.972-7.641,7.972z M-3.806,7.972h-1.278c-0.273,0-0.488-0.216-0.488-0.48
						c0-0.263,0.219-0.479,0.488-0.479h1.278c0.268,0,0.487,0.217,0.487,0.479C-3.318,7.756-3.538,7.972-3.806,7.972z M-3.806,1.741
						h-1.278c-0.273,0-0.488-0.216-0.488-0.48s0.219-0.48,0.488-0.48h1.278c0.268,0,0.487,0.216,0.487,0.48
						S-3.538,1.741-3.806,1.741z M-7.641,3.975h-6.614c-0.273,0-0.489-0.216-0.489-0.48c0-0.264,0.22-0.48,0.489-0.48h6.614
						c0.27,0,0.488,0.216,0.488,0.48C-7.152,3.759-7.371,3.975-7.641,3.975z M-8.923,5.64h-5.332c-0.273,0-0.489-0.216-0.489-0.479
						c0-0.265,0.22-0.481,0.489-0.481h5.332c0.269,0,0.488,0.216,0.488,0.481C-8.435,5.424-8.654,5.64-8.923,5.64z M-3.806,3.975
						h-1.278c-0.273,0-0.488-0.216-0.488-0.48c0-0.264,0.219-0.48,0.488-0.48h1.278c0.268,0,0.487,0.216,0.487,0.48
						C-3.318,3.759-3.538,3.975-3.806,3.975z M-3.806,5.64h-1.278c-0.273,0-0.488-0.216-0.488-0.479
						c0-0.265,0.219-0.481,0.488-0.481h1.278c0.268,0,0.487,0.216,0.487,0.481C-3.318,5.424-3.538,5.64-3.806,5.64z M-14.352,12.986
						c-0.453-0.911-0.516-1.756-0.174-2.313c0.239-0.39,0.653-0.604,1.166-0.604c0.45,0,0.697,0.222,0.826,0.408
						c0.293,0.429,0.261,1.115,0.148,1.71c0.286-0.174,0.404-0.123,0.495-0.084c0.134,0.056,0.223,0.179,0.241,0.33
						c0.227-0.161,0.476-0.291,0.688-0.291c0.177,0,0.329,0.082,0.417,0.224c0.083,0.136,0.089,0.302,0.062,0.468h0.892
						c0.189,0,0.342,0.154,0.342,0.345s-0.153,0.345-0.342,0.345h-1.371c-0.118,0-0.228-0.062-0.292-0.162
						c-0.062-0.103-0.068-0.229-0.015-0.337c0.004-0.008,0.008-0.016,0.012-0.024c-0.153,0.111-0.334,0.267-0.491,0.423
						c-0.098,0.099-0.245,0.129-0.373,0.075c-0.128-0.053-0.211-0.18-0.211-0.319v-0.17c-0.138,0.12-0.296,0.267-0.443,0.414
						c-0.113,0.116-0.292,0.135-0.428,0.047s-0.192-0.259-0.135-0.412c0.254-0.685,0.496-1.815,0.241-2.187
						c-0.038-0.055-0.099-0.112-0.262-0.112c-0.275,0-0.471,0.094-0.583,0.278c-0.21,0.343-0.135,0.958,0.204,1.643
						c0.085,0.169,0.016,0.378-0.153,0.464C-14.062,13.228-14.267,13.158-14.352,12.986z"/>
					<path id="Combined-Shape" fill="#FFFFFF" d="M-2.881,12.065c0,1.031-0.833,1.87-1.858,1.87s-1.859-0.839-1.859-1.87
						c0-1.03,0.834-1.869,1.859-1.869S-2.881,11.035-2.881,12.065z M-4.738,13.179c0.609,0,1.104-0.499,1.104-1.113
						c0-0.613-0.495-1.11-1.104-1.11c-0.61,0-1.105,0.497-1.105,1.11C-5.844,12.68-5.349,13.179-4.738,13.179z M-5.416,14.811
						c0.181,0.104,0.243,0.337,0.139,0.518l-1.117,1.946c-0.066,0.116-0.186,0.187-0.315,0.19h-0.012
						c-0.127,0-0.245-0.063-0.315-0.17l-0.36-0.55l-0.653-0.039c-0.131-0.008-0.248-0.084-0.31-0.199
						c-0.062-0.116-0.061-0.256,0.005-0.369l1.13-1.971c0.104-0.181,0.336-0.244,0.516-0.138c0.181,0.104,0.242,0.335,0.139,0.518
						l-0.825,1.438L-7.164,16c0.119,0.005,0.227,0.068,0.292,0.169l0.129,0.196l0.812-1.417
						C-5.826,14.768-5.596,14.706-5.416,14.811z M-2.234,14.186l1.121,1.952c0.064,0.113,0.066,0.253,0.005,0.369
						c-0.062,0.115-0.179,0.191-0.31,0.199l-0.653,0.039l-0.36,0.55c-0.07,0.106-0.189,0.17-0.315,0.17h-0.012
						c-0.13-0.004-0.249-0.074-0.315-0.19l-1.113-1.938c-0.104-0.183-0.043-0.414,0.138-0.519c0.181-0.106,0.411-0.043,0.516,0.138
						l0.809,1.41l0.128-0.196c0.065-0.101,0.174-0.162,0.292-0.169l0.233-0.016l-0.815-1.42c-0.104-0.182-0.043-0.414,0.138-0.519
						C-2.57,13.941-2.339,14.003-2.234,14.186z"/>
				</g>
			</g>
		</g>
	</g>
</g>
</svg>
