<?xml version="1.0" encoding="utf-8"?>
<!-- Generator: Adobe Illustrator 15.1.0, SVG Export Plug-In . SVG Version: 6.00 Build 0)  -->
<!DOCTYPE svg PUBLIC "-//W3C//DTD SVG 1.1//EN" "http://www.w3.org/Graphics/SVG/1.1/DTD/svg11.dtd">
<svg version="1.1" id="Layer_1" xmlns="http://www.w3.org/2000/svg" xmlns:xlink="http://www.w3.org/1999/xlink" x="0px" y="0px"
	 width="128px" height="128px" viewBox="0 0 128 128" enable-background="new 0 0 128 128" xml:space="preserve">
<circle fill="none" stroke="#FFFFFF" stroke-width="2" stroke-miterlimit="10" cx="64" cy="64" r="61"/>
<g>
	<path fill="#FFFFFF" d="M95.5,81.31c0,0.611-0.54,1.153-1.155,1.153H86.27v5.769c0,1.91-1.549,3.461-3.46,3.461H48.192
		c-1.912,0-3.461-1.551-3.461-3.461v-5.769h-8.077c-0.613,0-1.154-0.541-1.154-1.153V66.308c0-3.786,3.138-6.923,6.923-6.923h2.309
		V39.77c0-1.911,1.55-3.462,3.461-3.462h24.23c1.913,0,4.545,1.081,5.915,2.452l5.48,5.48c1.369,1.371,2.451,4.002,2.451,5.914
		v9.231h2.308c3.786,0,6.924,3.137,6.924,6.923V81.31H95.5z M81.654,64V50.154h-5.77c-1.912,0-3.461-1.551-3.461-3.462v-5.768
		H49.346V64H81.654z M81.654,87.076v-9.23H49.346v9.23H81.654z M88.576,64c-1.263,0-2.308,1.045-2.308,2.308
		c0,1.264,1.045,2.309,2.308,2.309c1.264,0,2.309-1.045,2.309-2.309C90.885,65.045,89.84,64,88.576,64z"/>
</g>
</svg>
