<?xml version="1.0" encoding="utf-8"?>
<!-- Generator: Adobe Illustrator 15.1.0, SVG Export Plug-In . SVG Version: 6.00 Build 0)  -->
<!DOCTYPE svg PUBLIC "-//W3C//DTD SVG 1.1//EN" "http://www.w3.org/Graphics/SVG/1.1/DTD/svg11.dtd">
<svg version="1.1" id="Layer_1" xmlns="http://www.w3.org/2000/svg" xmlns:xlink="http://www.w3.org/1999/xlink" x="0px" y="0px"
	 width="128px" height="128px" viewBox="0 0 128 128" enable-background="new 0 0 128 128" xml:space="preserve">
<circle fill="none" stroke="#FFFFFF" stroke-width="2" stroke-miterlimit="10" cx="64" cy="64" r="61"/>
<g>
	<path fill="#FFFFFF" d="M83.902,87.454c-1.055,0-2.083-0.435-2.801-1.183l-10.67-10.641c-3.639,2.52-7.996,3.858-12.415,3.858
		c-12.104,0-21.903-9.8-21.903-21.904c0-12.104,9.8-21.903,21.903-21.903c12.105,0,21.904,9.799,21.904,21.903
		c0,4.419-1.338,8.774-3.858,12.415l10.672,10.671c0.717,0.717,1.152,1.745,1.152,2.802C87.887,85.648,86.081,87.454,83.902,87.454z
		 M58.017,43.647c-7.686,0-13.938,6.252-13.938,13.938c0,7.687,6.252,13.938,13.938,13.938c7.687,0,13.939-6.252,13.939-13.938
		C71.956,49.899,65.704,43.647,58.017,43.647z"/>
</g>
</svg>
