<?xml version="1.0" encoding="utf-8"?>
<!-- Generator: Adobe Illustrator 15.1.0, SVG Export Plug-In . SVG Version: 6.00 Build 0)  -->
<!DOCTYPE svg PUBLIC "-//W3C//DTD SVG 1.1//EN" "http://www.w3.org/Graphics/SVG/1.1/DTD/svg11.dtd">
<svg version="1.1" id="Layer_1" xmlns="http://www.w3.org/2000/svg" xmlns:xlink="http://www.w3.org/1999/xlink" x="0px" y="0px"
	 width="233px" height="40px" viewBox="0 0 233 40" enable-background="new 0 0 233 40" xml:space="preserve">
<g>
	<g>
		<path fill="#FFCE03" d="M25.605,20.622h3.737l0,0c0.692,0,1.246,0.554,1.246,1.245v16.887l0,0c0,0.691-0.553,1.246-1.246,1.246
			h-3.737l0,0c-0.692,0-1.246-0.555-1.246-1.246V21.867l0,0C24.36,21.176,24.913,20.622,25.605,20.622L25.605,20.622z"/>
		<path fill="#00BBFF" d="M15.571,30.656h3.737l0,0c0.692,0,1.246,0.554,1.246,1.246v6.852l0,0C20.554,39.445,20,40,19.308,40
			h-3.737l0,0c-0.692,0-1.246-0.555-1.246-1.246v-6.852l0,0C14.325,31.21,14.879,30.656,15.571,30.656L15.571,30.656z"/>
		<path fill="#FF0256" d="M15.571,20.622h3.737l0,0c0.692,0,1.246,0.554,1.246,1.245v3.736l0,0c0,0.692-0.554,1.246-1.246,1.246
			h-3.737l0,0c-0.692,0-1.246-0.554-1.246-1.246v-3.736l0,0C14.325,21.176,14.879,20.622,15.571,20.622L15.571,20.622z"/>
		<path fill="#00BBFF" d="M15.571,10.034h28.097l0,0c0.692,0,1.246,0.553,1.246,1.246v3.737l0,0c0,0.692-0.553,1.246-1.246,1.246
			H15.571l0,0c-0.692,0-1.246-0.554-1.246-1.246V11.28l0,0C14.325,10.587,14.879,10.034,15.571,10.034L15.571,10.034z"/>
		<path fill="#FFCE03" d="M1.246,10.034h8.097l0,0c0.692,0,1.246,0.553,1.246,1.246v3.737l0,0c0,0.692-0.553,1.246-1.246,1.246
			H1.246l0,0C0.553,16.263,0,15.709,0,15.017V11.28l0,0C0,10.587,0.553,10.034,1.246,10.034L1.246,10.034z"/>
		<path fill="#FF0256" d="M33.702,0h9.965l0,0c0.692,0,1.315,0.553,1.315,1.245v3.737l0,0c0,0.692-0.553,1.246-1.246,1.246H33.702
			l0,0c-0.692,0-1.246-0.554-1.246-1.246V1.245l0,0C32.457,0.553,33.01,0,33.702,0L33.702,0z"/>
		<path fill="#FFCE03" d="M23.114,0h4.359l0,0c0.692,0,1.246,0.553,1.246,1.245v3.737l0,0c0,0.692-0.554,1.246-1.246,1.246h-4.359
			l0,0c-0.692,0-1.246-0.554-1.246-1.246V1.245l0,0C21.869,0.553,22.422,0,23.114,0L23.114,0z"/>
		<path fill="#00BBFF" d="M1.246,0h15.64l0,0c0.692,0,1.246,0.553,1.246,1.245v3.737l0,0c0,0.692-0.554,1.246-1.246,1.246H1.246l0,0
			C0.553,6.228,0,5.674,0,4.982V1.245l0,0C0,0.553,0.553,0,1.246,0L1.246,0z"/>
	</g>
	<g>
		<path fill="#FFFFFF" d="M70.37,13.148h-4.844c-0.346,0-0.623-0.277-0.623-0.623V8.858c0-0.346,0.277-0.623,0.623-0.623h14.948
			c0.346,0,0.623,0.276,0.623,0.623v3.667c0,0.346-0.276,0.623-0.623,0.623H75.63v17.993c0,0.346-0.277,0.623-0.623,0.623h-4.014
			c-0.346,0-0.624-0.277-0.624-0.623L70.37,13.148L70.37,13.148z"/>
		<path fill="#FFFFFF" d="M86.356,8.858c0-0.346,0.277-0.623,0.623-0.623h4.014c0.346,0,0.623,0.276,0.623,0.623v8.512h9.619V8.858
			c0-0.346,0.277-0.623,0.623-0.623h4.014c0.346,0,0.623,0.276,0.623,0.623v22.285c0,0.346-0.277,0.623-0.623,0.623h-4.014
			c-0.346,0-0.623-0.277-0.623-0.623v-8.857h-9.619v8.857c0,0.346-0.277,0.623-0.623,0.623h-4.014c-0.346,0-0.623-0.277-0.623-0.623
			V8.858z"/>
		<path fill="#FFFFFF" d="M113.554,8.858c0-0.346,0.277-0.623,0.623-0.623h13.909c0.348,0,0.623,0.276,0.623,0.623v3.667
			c0,0.346-0.275,0.623-0.623,0.623h-9.342V17.3h7.681c0.347,0,0.623,0.277,0.623,0.623v3.668c0,0.347-0.276,0.622-0.623,0.622
			h-7.681v4.637h9.342c0.348,0,0.623,0.277,0.623,0.625v3.666c0,0.346-0.275,0.623-0.623,0.623h-13.909
			c-0.346,0-0.623-0.277-0.623-0.623V8.858z"/>
		<path fill="#FFFFFF" d="M133.83,29.55c-0.275-0.276-0.346-0.554-0.139-1.036l1.521-2.701c0.277-0.414,0.831-0.414,1.178-0.207
			c0.969,0.623,2.629,1.869,4.773,1.869c1.316,0,2.354-0.83,2.354-2.008c0-1.384-1.246-2.354-3.461-3.391
			c-3.252-1.593-6.505-3.392-6.505-7.405c0-3.322,2.562-6.712,7.751-6.712c3.529,0,6.159,1.799,7.197,2.491
			c0.414,0.208,0.346,0.831,0.208,1.107l-1.729,2.561c-0.209,0.346-0.832,0.623-1.453,0.208c-0.764-0.554-2.77-1.799-4.567-1.799
			c-1.385,0-2.077,0.899-2.077,1.869c0,1.107,1.314,2.007,3.667,3.114c2.978,1.453,6.783,3.114,6.783,7.682
			c0,3.461-2.978,6.99-7.959,6.99C137.014,32.109,134.592,30.312,133.83,29.55z"/>
		<path fill="#FFFFFF" d="M154.938,8.858c0-0.346,0.277-0.623,0.623-0.623h8.098c4.429,0,7.543,3.391,7.543,7.404
			c0,4.152-3.114,7.542-7.475,7.542h-3.528v7.891c0,0.346-0.277,0.623-0.623,0.623h-3.945c-0.346,0-0.623-0.277-0.623-0.623V8.858
			H154.938z M163.588,18.339c1.453,0,2.424-1.177,2.424-2.63c0-1.384-1.039-2.491-2.424-2.491h-3.391v5.121H163.588z"/>
		<path fill="#FFFFFF" d="M176.32,8.858c0-0.346,0.277-0.623,0.623-0.623h4.015c0.347,0,0.623,0.276,0.623,0.623v22.285
			c0,0.346-0.276,0.623-0.623,0.623h-4.015c-0.346,0-0.623-0.277-0.623-0.623V8.858z"/>
		<path fill="#FFFFFF" d="M186.012,30.934l10.518-22.628c0.07-0.208,0.347-0.346,0.555-0.346h0.346c0.207,0,0.484,0.138,0.555,0.346
			l10.52,22.628c0.207,0.416-0.07,0.899-0.555,0.899h-3.736c-0.623,0-0.9-0.207-1.177-0.83l-1.245-2.63h-9.137l-1.244,2.699
			c-0.139,0.414-0.555,0.83-1.246,0.83h-3.668C186.079,31.766,185.803,31.35,186.012,30.934z M199.782,23.736l-2.562-5.536l0,0
			l-2.492,5.536H199.782z"/>
		<path fill="#FFFFFF" d="M212.861,8.512c0-0.346,0.275-0.623,0.621-0.623h0.485c0.345,0,0.554,0.207,0.83,0.484l12.94,12.388l0,0
			V8.858c0-0.346,0.277-0.623,0.623-0.623h4.015c0.347,0,0.623,0.276,0.623,0.623v22.628c0,0.416-0.276,0.623-0.623,0.623h-0.347
			c-0.346,0-0.555-0.068-0.83-0.346l-13.08-13.148l0,0v12.525c0,0.346-0.275,0.623-0.622,0.623h-4.015
			c-0.347,0-0.623-0.277-0.623-0.623V8.512H212.861z"/>
	</g>
</g>
</svg>
