<?xml version="1.0" encoding="utf-8"?>
<!-- Generator: Adobe Illustrator 15.1.0, SVG Export Plug-In . SVG Version: 6.00 Build 0)  -->
<!DOCTYPE svg PUBLIC "-//W3C//DTD SVG 1.1//EN" "http://www.w3.org/Graphics/SVG/1.1/DTD/svg11.dtd">
<svg version="1.1" id="Layer_1" xmlns="http://www.w3.org/2000/svg" xmlns:xlink="http://www.w3.org/1999/xlink" x="0px" y="0px"
	 width="128px" height="128px" viewBox="0 0 128 128" enable-background="new 0 0 128 128" xml:space="preserve">
<circle fill="none" stroke="#FFFFFF" stroke-width="2" stroke-miterlimit="10" cx="64" cy="64" r="61"/>
<g>
	<path fill="#FFFFFF" d="M85.607,89.536c0,1.074-0.891,1.964-1.965,1.964H44.357c-1.074,0-1.964-0.89-1.964-1.964V38.464
		c0-1.075,0.89-1.964,1.964-1.964h39.286c1.074,0,1.965,0.89,1.965,1.964V89.536z M81.679,87.571V40.429H46.321v47.143h11.786
		v-6.874c0-0.522,0.461-0.983,0.982-0.983h9.822c0.521,0,0.981,0.461,0.981,0.983v6.874H81.679z M54.179,47.303
		c0,0.522-0.46,0.982-0.982,0.982h-1.964c-0.521,0-0.982-0.46-0.982-0.982V45.34c0-0.522,0.46-0.983,0.982-0.983h1.964
		c0.522,0,0.982,0.46,0.982,0.983V47.303z M54.179,55.16c0,0.522-0.46,0.983-0.982,0.983h-1.964c-0.521,0-0.982-0.46-0.982-0.983
		v-1.963c0-0.522,0.46-0.982,0.982-0.982h1.964c0.522,0,0.982,0.46,0.982,0.982V55.16z M54.179,63.018
		c0,0.522-0.46,0.982-0.982,0.982h-1.964c-0.521,0-0.982-0.46-0.982-0.982v-1.964c0-0.522,0.46-0.982,0.982-0.982h1.964
		c0.522,0,0.982,0.46,0.982,0.982V63.018z M54.179,70.875c0,0.522-0.46,0.982-0.982,0.982h-1.964c-0.521,0-0.982-0.46-0.982-0.982
		v-1.964c0-0.522,0.46-0.982,0.982-0.982h1.964c0.522,0,0.982,0.46,0.982,0.982V70.875z M54.179,78.731
		c0,0.522-0.46,0.982-0.982,0.982h-1.964c-0.521,0-0.982-0.46-0.982-0.982v-1.963c0-0.522,0.46-0.982,0.982-0.982h1.964
		c0.522,0,0.982,0.46,0.982,0.982V78.731z M62.036,47.303c0,0.522-0.46,0.982-0.982,0.982h-1.964c-0.521,0-0.982-0.46-0.982-0.982
		V45.34c0-0.522,0.461-0.983,0.982-0.983h1.964c0.521,0,0.982,0.46,0.982,0.983V47.303z M62.036,55.16
		c0,0.522-0.46,0.983-0.982,0.983h-1.964c-0.521,0-0.982-0.46-0.982-0.983v-1.963c0-0.522,0.461-0.982,0.982-0.982h1.964
		c0.521,0,0.982,0.46,0.982,0.982V55.16z M62.036,63.018c0,0.522-0.46,0.982-0.982,0.982h-1.964c-0.521,0-0.982-0.46-0.982-0.982
		v-1.964c0-0.522,0.461-0.982,0.982-0.982h1.964c0.521,0,0.982,0.46,0.982,0.982V63.018z M62.036,70.875
		c0,0.522-0.46,0.982-0.982,0.982h-1.964c-0.521,0-0.982-0.46-0.982-0.982v-1.964c0-0.522,0.461-0.982,0.982-0.982h1.964
		c0.521,0,0.982,0.46,0.982,0.982V70.875z M69.893,47.303c0,0.522-0.46,0.982-0.981,0.982h-1.965c-0.521,0-0.982-0.46-0.982-0.982
		V45.34c0-0.522,0.461-0.983,0.982-0.983h1.965c0.521,0,0.981,0.46,0.981,0.983V47.303z M69.893,55.16
		c0,0.522-0.46,0.983-0.981,0.983h-1.965c-0.521,0-0.982-0.46-0.982-0.983v-1.963c0-0.522,0.461-0.982,0.982-0.982h1.965
		c0.521,0,0.981,0.46,0.981,0.982V55.16z M69.893,63.018c0,0.522-0.46,0.982-0.981,0.982h-1.965c-0.521,0-0.982-0.46-0.982-0.982
		v-1.964c0-0.522,0.461-0.982,0.982-0.982h1.965c0.521,0,0.981,0.46,0.981,0.982V63.018z M69.893,70.875
		c0,0.522-0.46,0.982-0.981,0.982h-1.965c-0.521,0-0.982-0.46-0.982-0.982v-1.964c0-0.522,0.461-0.982,0.982-0.982h1.965
		c0.521,0,0.981,0.46,0.981,0.982V70.875z M77.75,47.303c0,0.522-0.46,0.982-0.981,0.982h-1.966c-0.521,0-0.981-0.46-0.981-0.982
		V45.34c0-0.522,0.46-0.983,0.981-0.983h1.966c0.521,0,0.981,0.46,0.981,0.983V47.303z M77.75,55.16c0,0.522-0.46,0.983-0.981,0.983
		h-1.966c-0.521,0-0.981-0.46-0.981-0.983v-1.963c0-0.522,0.46-0.982,0.981-0.982h1.966c0.521,0,0.981,0.46,0.981,0.982V55.16z
		 M77.75,63.018c0,0.522-0.46,0.982-0.981,0.982h-1.966c-0.521,0-0.981-0.46-0.981-0.982v-1.964c0-0.522,0.46-0.982,0.981-0.982
		h1.966c0.521,0,0.981,0.46,0.981,0.982V63.018z M77.75,70.875c0,0.522-0.46,0.982-0.981,0.982h-1.966
		c-0.521,0-0.981-0.46-0.981-0.982v-1.964c0-0.522,0.46-0.982,0.981-0.982h1.966c0.521,0,0.981,0.46,0.981,0.982V70.875z
		 M77.75,78.731c0,0.522-0.46,0.982-0.981,0.982h-1.966c-0.521,0-0.981-0.46-0.981-0.982v-1.963c0-0.522,0.46-0.982,0.981-0.982
		h1.966c0.521,0,0.981,0.46,0.981,0.982V78.731z"/>
</g>
</svg>
