<?xml version="1.0" encoding="utf-8"?>
<!-- Generator: Adobe Illustrator 15.1.0, SVG Export Plug-In . SVG Version: 6.00 Build 0)  -->
<!DOCTYPE svg PUBLIC "-//W3C//DTD SVG 1.1//EN" "http://www.w3.org/Graphics/SVG/1.1/DTD/svg11.dtd">
<svg version="1.1" id="Layer_1" xmlns="http://www.w3.org/2000/svg" xmlns:xlink="http://www.w3.org/1999/xlink" x="0px" y="0px"
	 width="128px" height="128px" viewBox="0 0 128 128" enable-background="new 0 0 128 128" xml:space="preserve">
<circle fill="none" stroke="#FFFFFF" stroke-width="2" stroke-miterlimit="10" cx="64" cy="64" r="61"/>
<g>
	<path fill="#FFFFFF" d="M76.694,67.664c-2.248,2.208-4.806,4.495-7.556,6.821l-0.774,14.677c-0.039,0.391-0.271,0.774-0.618,1.012
		l-14.875,8.674C52.677,98.966,52.481,99,52.25,99c-0.311,0-0.621-0.113-0.892-0.345l-2.479-2.479
		c-0.308-0.351-0.424-0.813-0.308-1.243l3.292-10.689L40.979,73.361l-10.693,3.293c-0.116,0.039-0.231,0.039-0.347,0.039
		c-0.311,0-0.658-0.118-0.892-0.35l-2.479-2.479c-0.387-0.429-0.463-1.045-0.192-1.514l8.677-14.874
		c0.231-0.345,0.618-0.582,1.008-0.616l14.68-0.779c2.324-2.75,4.611-5.303,6.816-7.55c9.685-9.646,17.083-12.746,30.565-12.746
		c0.695,0,1.316,0.542,1.316,1.242C89.438,49.887,85.873,58.447,76.694,67.664z M77.041,44.459c-2.053,0-3.719,1.666-3.719,3.722
		s1.666,3.722,3.719,3.722s3.719-1.666,3.719-3.722S79.094,44.459,77.041,44.459z"/>
</g>
</svg>
