<svg version="1.1" id="Layer_1" xmlns="http://www.w3.org/2000/svg" xmlns:xlink="http://www.w3.org/1999/xlink" x="0px" y="0px"
	 width="308px" height="204px" viewBox="0 0 308 204" enable-background="new 0 0 308 204" xml:space="preserve">
<g>
	<g>
		<path fill="#FFFFFF" d="M142.321,61.214c-3.755,0-7.139-2.084-8.827-5.432c-2.451-4.866-0.489-10.816,4.376-13.272
			c1.376-0.687,2.912-1.053,4.437-1.053c3.758,0,7.139,2.081,8.832,5.43c2.453,4.865,0.486,10.819-4.374,13.27
			C145.385,60.848,143.846,61.214,142.321,61.214 M130.727,81.405c-0.193,0-0.38-0.005-0.573-0.014
			c-5.432-0.312-9.608-4.987-9.302-10.425c0.31-5.414,4.955-9.625,10.428-9.302c5.438,0.301,9.608,4.984,9.299,10.422
			C140.286,77.319,135.95,81.405,130.727,81.405 M142.397,101.543c-1.927,0-3.796-0.56-5.411-1.617
			c-2.204-1.444-3.718-3.664-4.255-6.247s-0.038-5.224,1.408-7.43c1.837-2.792,4.925-4.464,8.273-4.464
			c1.921,0,3.796,0.562,5.408,1.62c2.206,1.446,3.717,3.663,4.255,6.252c0.542,2.581,0.043,5.218-1.408,7.425
			C148.834,99.877,145.749,101.543,142.397,101.543 M165.692,101.491c-3.753,0-7.137-2.081-8.821-5.43
			c-1.194-2.355-1.387-5.031-0.567-7.541c0.828-2.508,2.586-4.537,4.938-5.729c1.37-0.697,2.912-1.058,4.442-1.058
			c3.755,0,7.142,2.084,8.829,5.438c2.451,4.859,0.486,10.811-4.382,13.267C168.765,101.13,167.226,101.491,165.692,101.491
			 M177.296,81.305c-0.19,0-0.383-0.008-0.567-0.019c-5.443-0.304-9.614-4.987-9.308-10.417c0.312-5.425,4.958-9.628,10.428-9.305
			c2.641,0.144,5.056,1.311,6.809,3.28c1.761,1.968,2.646,4.507,2.491,7.143C186.853,77.213,182.521,81.305,177.296,81.305
			 M165.595,61.168c-1.927,0-3.799-0.559-5.413-1.623c-4.557-2.99-5.829-9.125-2.839-13.679c1.829-2.795,4.92-4.461,8.263-4.461
			c1.927,0,3.796,0.562,5.414,1.617c4.553,2.982,5.831,9.12,2.844,13.679C172.025,59.491,168.94,61.168,165.595,61.168
			 M132.434,24.492c1.229,2.432,0.247,5.405-2.182,6.626c-2.437,1.229-5.402,0.25-6.632-2.182c-1.226-2.437-0.247-5.403,2.188-6.635
			C128.241,21.084,131.207,22.058,132.434,24.492 M102.53,66.66c2.725,0.157,4.803,2.485,4.648,5.207
			c-0.157,2.725-2.491,4.806-5.213,4.654c-2.719-0.16-4.797-2.491-4.648-5.219C97.475,68.587,99.809,66.506,102.53,66.66
			 M124.103,113.645c1.492-2.281,4.548-2.917,6.827-1.419c2.279,1.49,2.917,4.551,1.424,6.833c-1.492,2.279-4.556,2.911-6.833,1.422
			C123.237,118.979,122.602,115.922,124.103,113.645 M175.572,118.456c-1.229-2.432-0.249-5.397,2.182-6.627
			c2.442-1.226,5.402-0.249,6.635,2.183c1.224,2.437,0.247,5.404-2.192,6.629C179.768,121.872,176.794,120.896,175.572,118.456
			 M205.476,76.291c-2.728-0.155-4.803-2.488-4.646-5.211c0.151-2.724,2.482-4.805,5.201-4.645c2.722,0.151,4.804,2.482,4.657,5.209
			C210.533,74.364,208.194,76.442,205.476,76.291 M183.905,29.303c-1.489,2.282-4.556,2.917-6.832,1.422
			c-2.277-1.492-2.915-4.553-1.42-6.833c1.493-2.282,4.56-2.914,6.833-1.422C184.769,23.969,185.403,27.026,183.905,29.303
			 M121.642,9.351c0.792,1.577,0.155,3.5-1.417,4.29c-1.576,0.795-3.492,0.163-4.287-1.414c-0.792-1.574-0.163-3.498,1.411-4.287
			C118.925,7.145,120.847,7.777,121.642,9.351 M84.021,68.44c1.762,0.101,3.107,1.606,3.009,3.367
			c-0.101,1.762-1.612,3.112-3.37,3.007c-1.765-0.095-3.11-1.609-3.008-3.365C80.754,69.688,82.262,68.343,84.021,68.44
			 M116.386,130.563c0.963-1.479,2.947-1.889,4.423-0.92c1.479,0.969,1.889,2.944,0.912,4.423c-0.96,1.474-2.944,1.887-4.417,0.92
			C115.83,134.016,115.422,132.04,116.386,130.563 M186.364,133.6c-0.793-1.579-0.157-3.497,1.413-4.29
			c1.58-0.795,3.501-0.162,4.293,1.411c0.795,1.577,0.155,3.498-1.413,4.288C189.075,135.804,187.159,135.171,186.364,133.6
			 M223.979,74.514c-1.758-0.104-3.106-1.612-3.009-3.373c0.103-1.767,1.611-3.107,3.373-3.007c1.764,0.095,3.109,1.609,3.004,3.37
			C227.249,73.26,225.737,74.605,223.979,74.514 M191.623,12.385c-0.972,1.479-2.95,1.888-4.426,0.922
			c-1.477-0.969-1.886-2.947-0.917-4.426c0.966-1.473,2.943-1.886,4.42-0.915C192.177,8.933,192.586,10.911,191.623,12.385
			 M122.602,46.76c2.687,1.753,3.436,5.351,1.674,8.034c-1.758,2.681-5.359,3.433-8.04,1.669c-2.684-1.756-3.427-5.354-1.671-8.037
			C116.326,45.75,119.924,44.996,122.602,46.76 M116.896,86.312c2.86-1.449,6.352-0.296,7.798,2.569
			c1.441,2.863,0.291,6.355-2.575,7.802c-2.86,1.438-6.352,0.282-7.796-2.578C112.877,91.242,114.033,87.75,116.896,86.312
			 M147.874,111.023c0.184-3.199,2.933-5.646,6.13-5.465c3.201,0.182,5.649,2.925,5.467,6.127c-0.183,3.202-2.926,5.652-6.127,5.468
			C150.142,116.972,147.694,114.229,147.874,111.023 M185.4,96.197c-2.678-1.762-3.43-5.359-1.671-8.046
			c1.758-2.676,5.359-3.425,8.037-1.666c2.684,1.756,3.433,5.356,1.674,8.037C191.68,97.206,188.079,97.953,185.4,96.197
			 M191.11,56.642c-2.868,1.444-6.355,0.294-7.796-2.569c-1.446-2.865-0.299-6.357,2.569-7.799c2.868-1.446,6.355-0.29,7.804,2.572
			C195.126,51.709,193.976,55.204,191.11,56.642 M159.715,31.925c-0.185,3.199-2.928,5.649-6.132,5.465
			c-3.202-0.185-5.649-2.922-5.468-6.127c0.182-3.202,2.931-5.65,6.13-5.468C157.446,25.977,159.894,28.717,159.715,31.925
			 M100.981,36.342c1.883,1.229,2.404,3.75,1.169,5.625c-1.227,1.875-3.75,2.404-5.63,1.17c-1.873-1.229-2.399-3.75-1.167-5.625
			S99.103,35.107,100.981,36.342 M97.065,99.822c2.005-1.01,4.45-0.203,5.459,1.802c1.01,2.003,0.204,4.444-1.802,5.46
			c-2.002,1.006-4.45,0.206-5.459-1.797C94.254,103.285,95.06,100.832,97.065,99.822 M149.667,134.959
			c0.127-2.243,2.049-3.953,4.288-3.825c2.241,0.124,3.956,2.046,3.828,4.284c-0.124,2.247-2.049,3.959-4.287,3.832
			C151.249,139.122,149.54,137.201,149.667,134.959 M207.022,106.605c-1.878-1.226-2.402-3.75-1.173-5.625
			c1.232-1.875,3.753-2.404,5.628-1.169c1.881,1.229,2.398,3.75,1.172,5.628C211.415,107.314,208.899,107.841,207.022,106.605
			 M210.943,43.129c-2.006,1.007-4.45,0.2-5.46-1.805c-1.01-2.002-0.206-4.445,1.799-5.454c1.997-1.012,4.445-0.212,5.454,1.796
			C213.746,39.674,212.94,42.119,210.943,43.129 M157.924,7.989c-0.128,2.244-2.049,3.954-4.295,3.826
			c-2.238-0.125-3.956-2.046-3.823-4.284c0.125-2.247,2.046-3.959,4.285-3.832C156.334,3.826,158.049,5.75,157.924,7.989"/>
	</g>
</g>
<g>
	<path fill="#FFFFFF" d="M19.636,175.692c-5.102,0-8.975,4.016-8.975,9.305c0,5.337,3.873,9.399,8.975,9.399
		c2.739,0,5.903-1.512,8.218-3.872l5.054,5.43c-3.542,3.733-8.832,6.141-13.743,6.141c-9.967,0-17.382-7.272-17.382-17.003
		c0-9.541,7.604-16.721,17.711-16.721c4.913,0,10.061,2.174,13.367,5.668l-5.007,6C25.682,177.394,22.517,175.692,19.636,175.692z"
		/>
	<path fill="#FFFFFF" d="M67.722,195.861H53.41l-2.313,5.856h-8.88l14.216-33.11h8.88l13.887,33.11h-9.21L67.722,195.861z
		 M65.172,189.249l-4.535-11.81l-4.629,11.81H65.172z"/>
	<path fill="#FFFFFF" d="M111.512,201.718l-4.819-9.164h-0.188h-6.235v9.164h-8.644v-33.11h14.879c8.784,0,13.79,4.252,13.79,11.619
		c0,5.006-2.078,8.691-5.904,10.675l6.897,10.816H111.512z M100.27,185.659h6.281c3.495,0,5.528-1.797,5.528-5.147
		c0-3.26-2.033-5.007-5.528-5.007h-6.281V185.659z"/>
	<path fill="#FFFFFF" d="M167.155,185.138c0,9.872-7.227,16.58-17.95,16.58h-13.932v-33.11h14.263
		C160.021,168.607,167.155,175.314,167.155,185.138z M158.322,185.232c0-5.714-3.73-9.586-8.974-9.586h-5.433v19.081h5.856
		C154.778,194.728,158.322,190.901,158.322,185.232z"/>
	<path fill="#FFFFFF" d="M202.062,195.861h-14.311l-2.314,5.856h-8.879l14.216-33.11h8.882l13.885,33.11h-9.21L202.062,195.861z
		 M199.511,189.249l-4.534-11.81l-4.626,11.81H199.511z"/>
	<path fill="#FFFFFF" d="M233.571,168.607l15.02,19.934v-19.934h8.029v33.11h-7.558l-15.02-19.839v19.839h-8.075v-33.11H233.571z"/>
	<path fill="#FFFFFF" d="M306.218,185.138c0,9.685-7.652,16.957-17.901,16.957s-17.901-7.272-17.901-16.957
		c0-9.633,7.652-16.767,17.901-16.767S306.218,175.551,306.218,185.138z M279.297,185.187c0,5.384,4.203,9.541,9.114,9.541
		c4.961,0,8.928-4.157,8.928-9.541c0-5.386-3.967-9.445-8.928-9.445C283.451,175.741,279.297,179.801,279.297,185.187z"/>
</g>
</svg>
